<mxfile host="app.diagrams.net" modified="2023-04-28T15:03:20.665Z" agent="Mozilla/5.0 (Windows NT 10.0; Win64; x64) AppleWebKit/537.36 (KHTML, like Gecko) Chrome/112.0.0.0 Safari/537.36 Edg/112.0.1722.48" etag="NpBCWyjFfRavxz0avqJg" version="21.2.1" type="github" pages="5">
  <diagram name="system architecture" id="F75F39Ndx9XzVUsRWSvf">
    <mxGraphModel dx="1900" dy="1239" grid="0" gridSize="14" guides="1" tooltips="1" connect="1" arrows="1" fold="1" page="0" pageScale="1" pageWidth="827" pageHeight="1169" math="0" shadow="0">
      <root>
        <mxCell id="0" />
        <mxCell id="1" parent="0" />
        <mxCell id="sw15Z7x13JnrboLt79yL-166" value="" style="rounded=1;whiteSpace=wrap;html=1;absoluteArcSize=1;arcSize=14;strokeWidth=2;dashed=1;labelBackgroundColor=none;fillColor=#FAE5C7;strokeColor=#0F8B8D;fontColor=#143642;" vertex="1" parent="1">
          <mxGeometry x="-40" y="-14" width="154" height="371" as="geometry" />
        </mxCell>
        <mxCell id="sw15Z7x13JnrboLt79yL-163" value="" style="rounded=1;whiteSpace=wrap;html=1;absoluteArcSize=1;arcSize=14;strokeWidth=2;dashed=1;labelBackgroundColor=none;fillColor=#FAE5C7;strokeColor=#0F8B8D;fontColor=#143642;" vertex="1" parent="1">
          <mxGeometry x="496" y="-14" width="568" height="371" as="geometry" />
        </mxCell>
        <mxCell id="sw15Z7x13JnrboLt79yL-162" value="" style="rounded=1;whiteSpace=wrap;html=1;absoluteArcSize=1;arcSize=14;strokeWidth=2;dashed=1;labelBackgroundColor=none;fillColor=#FAE5C7;strokeColor=#0F8B8D;fontColor=#143642;" vertex="1" parent="1">
          <mxGeometry x="284" y="-14" width="180" height="371" as="geometry" />
        </mxCell>
        <mxCell id="sw15Z7x13JnrboLt79yL-100" value="" style="edgeStyle=orthogonalEdgeStyle;rounded=0;orthogonalLoop=1;jettySize=auto;html=1;labelBackgroundColor=none;strokeColor=#A8201A;fontColor=default;" edge="1" parent="1" source="sw15Z7x13JnrboLt79yL-1" target="sw15Z7x13JnrboLt79yL-2">
          <mxGeometry relative="1" as="geometry" />
        </mxCell>
        <mxCell id="sw15Z7x13JnrboLt79yL-1" value="&lt;h3&gt;View&lt;br&gt;Web browser (Apache Tomcat)&lt;/h3&gt;" style="rounded=0;whiteSpace=wrap;html=1;labelBackgroundColor=none;fillColor=#FAE5C7;strokeColor=#0F8B8D;fontColor=#143642;" vertex="1" parent="1">
          <mxGeometry x="-28" y="125.25" width="130" height="67.5" as="geometry" />
        </mxCell>
        <mxCell id="sw15Z7x13JnrboLt79yL-7" value="" style="edgeStyle=orthogonalEdgeStyle;rounded=0;orthogonalLoop=1;jettySize=auto;html=1;labelBackgroundColor=none;strokeColor=#A8201A;fontColor=default;" edge="1" parent="1" source="sw15Z7x13JnrboLt79yL-2" target="sw15Z7x13JnrboLt79yL-6">
          <mxGeometry relative="1" as="geometry" />
        </mxCell>
        <mxCell id="sw15Z7x13JnrboLt79yL-2" value="&lt;h3&gt;front controller (DispatcherServlet) &lt;/h3&gt;" style="rounded=0;whiteSpace=wrap;html=1;labelBackgroundColor=none;fillColor=#FAE5C7;strokeColor=#0F8B8D;fontColor=#143642;" vertex="1" parent="1">
          <mxGeometry x="130" y="37.75" width="140" height="40" as="geometry" />
        </mxCell>
        <mxCell id="sw15Z7x13JnrboLt79yL-110" value="" style="edgeStyle=orthogonalEdgeStyle;rounded=0;orthogonalLoop=1;jettySize=auto;html=1;labelBackgroundColor=none;strokeColor=#A8201A;fontColor=default;" edge="1" parent="1" source="sw15Z7x13JnrboLt79yL-6" target="sw15Z7x13JnrboLt79yL-108">
          <mxGeometry relative="1" as="geometry" />
        </mxCell>
        <mxCell id="sw15Z7x13JnrboLt79yL-6" value="&lt;h3&gt;Controller&lt;/h3&gt;" style="whiteSpace=wrap;html=1;rounded=0;labelBackgroundColor=none;fillColor=#FAE5C7;strokeColor=#0F8B8D;fontColor=#143642;" vertex="1" parent="1">
          <mxGeometry x="300" y="44" width="150" height="27.5" as="geometry" />
        </mxCell>
        <mxCell id="sw15Z7x13JnrboLt79yL-101" value="&lt;h4&gt;&amp;nbsp;AdminControler, FileController, MainController, MenusController, NoticeController, OrdersController, TypesController, and UsersController&lt;/h4&gt;" style="whiteSpace=wrap;html=1;labelBackgroundColor=none;fillColor=#FAE5C7;strokeColor=#0F8B8D;fontColor=#143642;" vertex="1" parent="1">
          <mxGeometry x="300" y="71.25" width="150" height="150" as="geometry" />
        </mxCell>
        <mxCell id="sw15Z7x13JnrboLt79yL-107" value="&lt;h4&gt;AdminService, MenusService, NoticeService, OrdersService, TypesService, and UsersService&lt;/h4&gt;" style="whiteSpace=wrap;html=1;labelBackgroundColor=none;fillColor=#FAE5C7;strokeColor=#0F8B8D;fontColor=#143642;" vertex="1" parent="1">
          <mxGeometry x="509" y="72.25" width="150" height="150" as="geometry" />
        </mxCell>
        <mxCell id="sw15Z7x13JnrboLt79yL-112" value="" style="edgeStyle=orthogonalEdgeStyle;rounded=0;orthogonalLoop=1;jettySize=auto;html=1;labelBackgroundColor=none;strokeColor=#A8201A;fontColor=default;" edge="1" parent="1" source="sw15Z7x13JnrboLt79yL-108" target="sw15Z7x13JnrboLt79yL-111">
          <mxGeometry relative="1" as="geometry" />
        </mxCell>
        <mxCell id="sw15Z7x13JnrboLt79yL-108" value="&lt;h3&gt;Service&lt;/h3&gt;" style="whiteSpace=wrap;html=1;rounded=0;labelBackgroundColor=none;fillColor=#FAE5C7;strokeColor=#0F8B8D;fontColor=#143642;" vertex="1" parent="1">
          <mxGeometry x="509" y="44.5" width="150" height="27.5" as="geometry" />
        </mxCell>
        <mxCell id="sw15Z7x13JnrboLt79yL-115" value="" style="edgeStyle=orthogonalEdgeStyle;rounded=0;orthogonalLoop=1;jettySize=auto;html=1;labelBackgroundColor=none;strokeColor=#A8201A;fontColor=default;" edge="1" parent="1" source="sw15Z7x13JnrboLt79yL-111" target="sw15Z7x13JnrboLt79yL-114">
          <mxGeometry relative="1" as="geometry" />
        </mxCell>
        <mxCell id="sw15Z7x13JnrboLt79yL-111" value="&lt;h3&gt;Repository(Mybatis)&lt;/h3&gt;" style="whiteSpace=wrap;html=1;rounded=0;labelBackgroundColor=none;fillColor=#FAE5C7;strokeColor=#0F8B8D;fontColor=#143642;" vertex="1" parent="1">
          <mxGeometry x="702" y="44.5" width="150" height="27.5" as="geometry" />
        </mxCell>
        <mxCell id="sw15Z7x13JnrboLt79yL-113" value="&lt;h4 style=&quot;&quot;&gt;AdminDao,&amp;nbsp; &amp;nbsp; &amp;nbsp; MenusDao,&amp;nbsp; &amp;nbsp; &amp;nbsp; &amp;nbsp;NoticeDao,&amp;nbsp; &amp;nbsp; &amp;nbsp;OrdersDao,&amp;nbsp; &amp;nbsp; &amp;nbsp; &amp;nbsp; &amp;nbsp; &amp;nbsp;TypesDao,&amp;nbsp; &amp;nbsp; &amp;nbsp; &amp;nbsp; &amp;nbsp; UsersDao&lt;/h4&gt;" style="whiteSpace=wrap;html=1;align=center;labelBackgroundColor=none;fillColor=#FAE5C7;strokeColor=#0F8B8D;fontColor=#143642;" vertex="1" parent="1">
          <mxGeometry x="702" y="71.75" width="150" height="150" as="geometry" />
        </mxCell>
        <mxCell id="sw15Z7x13JnrboLt79yL-119" style="edgeStyle=orthogonalEdgeStyle;rounded=0;orthogonalLoop=1;jettySize=auto;html=1;entryX=0;entryY=0.5;entryDx=0;entryDy=0;labelBackgroundColor=none;strokeColor=#A8201A;fontColor=default;" edge="1" parent="1" source="sw15Z7x13JnrboLt79yL-114" target="sw15Z7x13JnrboLt79yL-117">
          <mxGeometry relative="1" as="geometry" />
        </mxCell>
        <mxCell id="sw15Z7x13JnrboLt79yL-114" value="&lt;h3&gt;Entity&lt;/h3&gt;" style="whiteSpace=wrap;html=1;rounded=0;labelBackgroundColor=none;fillColor=#FAE5C7;strokeColor=#0F8B8D;fontColor=#143642;" vertex="1" parent="1">
          <mxGeometry x="891" y="43.75" width="150" height="27.5" as="geometry" />
        </mxCell>
        <mxCell id="sw15Z7x13JnrboLt79yL-116" value="&lt;h4&gt;Admin, Menus, Notice, Orders, Types, and Users&lt;/h4&gt;" style="whiteSpace=wrap;html=1;labelBackgroundColor=none;fillColor=#FAE5C7;strokeColor=#0F8B8D;fontColor=#143642;" vertex="1" parent="1">
          <mxGeometry x="891" y="71.5" width="150" height="150" as="geometry" />
        </mxCell>
        <mxCell id="sw15Z7x13JnrboLt79yL-117" value="&lt;h3&gt;Database&lt;/h3&gt;" style="rounded=0;whiteSpace=wrap;html=1;labelBackgroundColor=none;fillColor=#FAE5C7;strokeColor=#0F8B8D;fontColor=#143642;" vertex="1" parent="1">
          <mxGeometry x="1131" y="99" width="100" height="67.5" as="geometry" />
        </mxCell>
        <mxCell id="sw15Z7x13JnrboLt79yL-122" value="handle HTTP requests from the front-end and return appropriate responses" style="rounded=0;whiteSpace=wrap;html=1;labelBackgroundColor=none;fillColor=#FAE5C7;strokeColor=#0F8B8D;fontColor=#143642;" vertex="1" parent="1">
          <mxGeometry x="300" y="221.25" width="150" height="98.5" as="geometry" />
        </mxCell>
        <mxCell id="sw15Z7x13JnrboLt79yL-123" value="implement &lt;b&gt;business logic&lt;/b&gt; and interact with the repository(DAO) layer to perform &lt;b&gt;CRUD&lt;/b&gt; (Create, Read, Update, Delete) operations on the database" style="rounded=0;whiteSpace=wrap;html=1;labelBackgroundColor=none;fillColor=#FAE5C7;strokeColor=#0F8B8D;fontColor=#143642;" vertex="1" parent="1">
          <mxGeometry x="509" y="222.25" width="150" height="98.75" as="geometry" />
        </mxCell>
        <mxCell id="sw15Z7x13JnrboLt79yL-124" value="interface between the service layer and the &lt;b&gt;data access layer&lt;/b&gt; (DAO),Encapsulates the details of storing and retrieving data in the database" style="rounded=0;whiteSpace=wrap;html=1;labelBackgroundColor=none;fillColor=#FAE5C7;strokeColor=#0F8B8D;fontColor=#143642;" vertex="1" parent="1">
          <mxGeometry x="702" y="221.5" width="150" height="98.75" as="geometry" />
        </mxCell>
        <mxCell id="sw15Z7x13JnrboLt79yL-125" value="represent database tables as objects" style="rounded=0;whiteSpace=wrap;html=1;labelBackgroundColor=none;fillColor=#FAE5C7;strokeColor=#0F8B8D;fontColor=#143642;" vertex="1" parent="1">
          <mxGeometry x="891" y="221" width="150" height="98.75" as="geometry" />
        </mxCell>
        <mxCell id="sw15Z7x13JnrboLt79yL-154" value="" style="strokeWidth=2;html=1;shape=mxgraph.flowchart.annotation_2;align=left;labelPosition=right;pointerEvents=1;rotation=-90;labelBackgroundColor=none;fillColor=#FAE5C7;strokeColor=#0F8B8D;fontColor=#143642;" vertex="1" parent="1">
          <mxGeometry x="450" y="255.75" width="50" height="180.5" as="geometry" />
        </mxCell>
        <mxCell id="sw15Z7x13JnrboLt79yL-155" value="&lt;h3&gt;&lt;b&gt;software logic&lt;/b&gt;&lt;/h3&gt;" style="whiteSpace=wrap;html=1;align=center;strokeWidth=2;labelBackgroundColor=none;fillColor=#FAE5C7;strokeColor=#0F8B8D;fontColor=#143642;" vertex="1" parent="1">
          <mxGeometry x="415" y="371" width="120" height="40" as="geometry" />
        </mxCell>
        <mxCell id="sw15Z7x13JnrboLt79yL-157" value="" style="strokeWidth=2;html=1;shape=mxgraph.flowchart.annotation_2;align=left;labelPosition=right;pointerEvents=1;rotation=-90;labelBackgroundColor=none;fillColor=#FAE5C7;strokeColor=#0F8B8D;fontColor=#143642;" vertex="1" parent="1">
          <mxGeometry x="963" y="131" width="50" height="430" as="geometry" />
        </mxCell>
        <mxCell id="sw15Z7x13JnrboLt79yL-160" value="&lt;h3&gt;&lt;b&gt;data access logic&lt;/b&gt;&lt;/h3&gt;" style="whiteSpace=wrap;html=1;align=center;strokeWidth=2;labelBackgroundColor=none;fillColor=#FAE5C7;strokeColor=#0F8B8D;fontColor=#143642;" vertex="1" parent="1">
          <mxGeometry x="928" y="371" width="120" height="40" as="geometry" />
        </mxCell>
        <mxCell id="sw15Z7x13JnrboLt79yL-161" style="edgeStyle=orthogonalEdgeStyle;rounded=0;orthogonalLoop=1;jettySize=auto;html=1;exitX=0.5;exitY=1;exitDx=0;exitDy=0;labelBackgroundColor=none;strokeColor=#A8201A;fontColor=default;" edge="1" parent="1" source="sw15Z7x13JnrboLt79yL-160" target="sw15Z7x13JnrboLt79yL-160">
          <mxGeometry relative="1" as="geometry" />
        </mxCell>
        <mxCell id="sw15Z7x13JnrboLt79yL-170" value="&lt;h2&gt;View（V）&lt;/h2&gt;" style="text;html=1;strokeColor=none;fillColor=none;spacing=5;spacingTop=-20;whiteSpace=wrap;overflow=hidden;rounded=0;align=center;labelBackgroundColor=none;fontColor=#143642;" vertex="1" parent="1">
          <mxGeometry x="-28" width="152" height="56" as="geometry" />
        </mxCell>
        <mxCell id="sw15Z7x13JnrboLt79yL-171" value="&lt;h2&gt;Controller（C）&lt;/h2&gt;" style="text;html=1;strokeColor=none;fillColor=none;spacing=5;spacingTop=-20;whiteSpace=wrap;overflow=hidden;rounded=0;align=center;labelBackgroundColor=none;fontColor=#143642;" vertex="1" parent="1">
          <mxGeometry x="299" width="152" height="56" as="geometry" />
        </mxCell>
        <mxCell id="sw15Z7x13JnrboLt79yL-172" value="&lt;h2&gt;Model（M）&lt;/h2&gt;" style="text;html=1;strokeColor=none;fillColor=none;spacing=5;spacingTop=-20;whiteSpace=wrap;overflow=hidden;rounded=0;align=center;labelBackgroundColor=none;fontColor=#143642;" vertex="1" parent="1">
          <mxGeometry x="714" width="152" height="56" as="geometry" />
        </mxCell>
      </root>
    </mxGraphModel>
  </diagram>
  <diagram id="Y1_Cjlw7siVRExbIenBv" name="highlevel softwre">
    <mxGraphModel dx="3533" dy="3704" grid="0" gridSize="14" guides="1" tooltips="1" connect="1" arrows="1" fold="1" page="0" pageScale="1" pageWidth="827" pageHeight="1169" math="0" shadow="0">
      <root>
        <mxCell id="0" />
        <mxCell id="1" parent="0" />
        <mxCell id="32kZzinTKJD4sdX1_4fd-1" value="" style="group;rounded=1;fontSize=13;fontStyle=1" vertex="1" connectable="0" parent="1">
          <mxGeometry x="-956" y="-1344" width="1409.95" height="1628" as="geometry" />
        </mxCell>
        <mxCell id="FZcH5zqsUxlnSrDGplCy-97" value="Start as a manager" style="strokeWidth=2;html=1;shape=mxgraph.flowchart.start_2;whiteSpace=wrap;rounded=1;fontSize=13;fontStyle=1" vertex="1" parent="32kZzinTKJD4sdX1_4fd-1">
          <mxGeometry x="742" width="100" height="100" as="geometry" />
        </mxCell>
        <mxCell id="FZcH5zqsUxlnSrDGplCy-98" value="are you a new manager?" style="rhombus;whiteSpace=wrap;html=1;strokeWidth=2;rounded=1;fontSize=13;fontStyle=1" vertex="1" parent="32kZzinTKJD4sdX1_4fd-1">
          <mxGeometry x="739" y="140" width="106" height="95" as="geometry" />
        </mxCell>
        <mxCell id="FZcH5zqsUxlnSrDGplCy-99" value="" style="edgeStyle=orthogonalEdgeStyle;rounded=1;orthogonalLoop=1;jettySize=auto;html=1;fontSize=13;fontStyle=1" edge="1" parent="32kZzinTKJD4sdX1_4fd-1" source="FZcH5zqsUxlnSrDGplCy-97" target="FZcH5zqsUxlnSrDGplCy-98">
          <mxGeometry relative="1" as="geometry" />
        </mxCell>
        <mxCell id="FZcH5zqsUxlnSrDGplCy-100" value="registration page" style="whiteSpace=wrap;html=1;strokeWidth=2;rounded=1;fontSize=13;fontStyle=1" vertex="1" parent="32kZzinTKJD4sdX1_4fd-1">
          <mxGeometry x="955" y="157.5" width="120" height="60" as="geometry" />
        </mxCell>
        <mxCell id="FZcH5zqsUxlnSrDGplCy-101" value="" style="edgeStyle=orthogonalEdgeStyle;rounded=1;orthogonalLoop=1;jettySize=auto;html=1;fontSize=13;fontStyle=1" edge="1" parent="32kZzinTKJD4sdX1_4fd-1" source="FZcH5zqsUxlnSrDGplCy-98" target="FZcH5zqsUxlnSrDGplCy-100">
          <mxGeometry relative="1" as="geometry">
            <Array as="points">
              <mxPoint x="858" y="188" />
              <mxPoint x="858" y="188" />
            </Array>
          </mxGeometry>
        </mxCell>
        <mxCell id="FZcH5zqsUxlnSrDGplCy-102" value="Yes" style="edgeLabel;html=1;align=center;verticalAlign=middle;resizable=0;points=[];rounded=1;fontSize=13;fontStyle=1" vertex="1" connectable="0" parent="FZcH5zqsUxlnSrDGplCy-101">
          <mxGeometry x="-0.2898" relative="1" as="geometry">
            <mxPoint x="12" as="offset" />
          </mxGeometry>
        </mxCell>
        <mxCell id="FZcH5zqsUxlnSrDGplCy-103" value="Log in page" style="rounded=1;whiteSpace=wrap;html=1;strokeWidth=2;fontSize=13;fontStyle=1" vertex="1" parent="32kZzinTKJD4sdX1_4fd-1">
          <mxGeometry x="732" y="295" width="120" height="60" as="geometry" />
        </mxCell>
        <mxCell id="FZcH5zqsUxlnSrDGplCy-104" value="" style="edgeStyle=orthogonalEdgeStyle;rounded=1;orthogonalLoop=1;jettySize=auto;html=1;fontSize=13;fontStyle=1" edge="1" parent="32kZzinTKJD4sdX1_4fd-1" source="FZcH5zqsUxlnSrDGplCy-98" target="FZcH5zqsUxlnSrDGplCy-103">
          <mxGeometry relative="1" as="geometry" />
        </mxCell>
        <mxCell id="FZcH5zqsUxlnSrDGplCy-112" value="No" style="edgeLabel;html=1;align=center;verticalAlign=middle;resizable=0;points=[];rounded=1;fontSize=13;fontStyle=1" vertex="1" connectable="0" parent="FZcH5zqsUxlnSrDGplCy-104">
          <mxGeometry x="-0.1846" y="-1" relative="1" as="geometry">
            <mxPoint as="offset" />
          </mxGeometry>
        </mxCell>
        <mxCell id="FZcH5zqsUxlnSrDGplCy-106" value="" style="edgeStyle=orthogonalEdgeStyle;rounded=1;orthogonalLoop=1;jettySize=auto;html=1;fontSize=13;fontStyle=1" edge="1" parent="32kZzinTKJD4sdX1_4fd-1" source="FZcH5zqsUxlnSrDGplCy-105" target="FZcH5zqsUxlnSrDGplCy-103">
          <mxGeometry relative="1" as="geometry" />
        </mxCell>
        <mxCell id="FZcH5zqsUxlnSrDGplCy-108" value="registration &lt;br style=&quot;font-size: 13px;&quot;&gt;successfully" style="edgeLabel;html=1;align=center;verticalAlign=middle;resizable=0;points=[];rounded=1;fontSize=13;fontStyle=1" vertex="1" connectable="0" parent="FZcH5zqsUxlnSrDGplCy-106">
          <mxGeometry x="-0.1581" y="-1" relative="1" as="geometry">
            <mxPoint as="offset" />
          </mxGeometry>
        </mxCell>
        <mxCell id="FZcH5zqsUxlnSrDGplCy-105" value="registration" style="rounded=1;whiteSpace=wrap;html=1;fontSize=13;fontStyle=1" vertex="1" parent="32kZzinTKJD4sdX1_4fd-1">
          <mxGeometry x="955" y="294" width="120" height="60" as="geometry" />
        </mxCell>
        <mxCell id="FZcH5zqsUxlnSrDGplCy-107" value="" style="edgeStyle=orthogonalEdgeStyle;rounded=1;orthogonalLoop=1;jettySize=auto;html=1;fontSize=13;fontStyle=1" edge="1" parent="32kZzinTKJD4sdX1_4fd-1" source="FZcH5zqsUxlnSrDGplCy-100" target="FZcH5zqsUxlnSrDGplCy-105">
          <mxGeometry relative="1" as="geometry" />
        </mxCell>
        <mxCell id="FZcH5zqsUxlnSrDGplCy-109" value="Administor main page" style="whiteSpace=wrap;html=1;rounded=1;strokeWidth=2;fontSize=13;fontStyle=1" vertex="1" parent="32kZzinTKJD4sdX1_4fd-1">
          <mxGeometry x="732" y="420" width="120" height="60" as="geometry" />
        </mxCell>
        <mxCell id="FZcH5zqsUxlnSrDGplCy-110" value="" style="edgeStyle=orthogonalEdgeStyle;rounded=1;orthogonalLoop=1;jettySize=auto;html=1;fontSize=13;fontStyle=1" edge="1" parent="32kZzinTKJD4sdX1_4fd-1" source="FZcH5zqsUxlnSrDGplCy-103" target="FZcH5zqsUxlnSrDGplCy-109">
          <mxGeometry relative="1" as="geometry" />
        </mxCell>
        <mxCell id="FZcH5zqsUxlnSrDGplCy-111" value="Log in&lt;br style=&quot;font-size: 13px;&quot;&gt;successfully" style="edgeLabel;html=1;align=center;verticalAlign=middle;resizable=0;points=[];rounded=1;fontSize=13;fontStyle=1" vertex="1" connectable="0" parent="FZcH5zqsUxlnSrDGplCy-110">
          <mxGeometry x="-0.2631" y="-3" relative="1" as="geometry">
            <mxPoint y="2" as="offset" />
          </mxGeometry>
        </mxCell>
        <mxCell id="FZcH5zqsUxlnSrDGplCy-113" value="Add new pizza" style="whiteSpace=wrap;html=1;rounded=1;strokeWidth=2;fontSize=13;fontStyle=1" vertex="1" parent="32kZzinTKJD4sdX1_4fd-1">
          <mxGeometry x="732.95" y="643" width="120" height="60" as="geometry" />
        </mxCell>
        <mxCell id="FZcH5zqsUxlnSrDGplCy-137" style="edgeStyle=orthogonalEdgeStyle;rounded=1;orthogonalLoop=1;jettySize=auto;html=1;entryX=0.5;entryY=0;entryDx=0;entryDy=0;fontSize=13;fontStyle=1" edge="1" parent="32kZzinTKJD4sdX1_4fd-1" target="FZcH5zqsUxlnSrDGplCy-133">
          <mxGeometry relative="1" as="geometry">
            <mxPoint x="642.95" y="795" as="sourcePoint" />
            <mxPoint x="820.95" y="875" as="targetPoint" />
            <Array as="points">
              <mxPoint x="642.95" y="839" />
              <mxPoint x="820.95" y="839" />
            </Array>
          </mxGeometry>
        </mxCell>
        <mxCell id="FZcH5zqsUxlnSrDGplCy-118" value="input:Raw material" style="shape=parallelogram;html=1;strokeWidth=2;perimeter=parallelogramPerimeter;whiteSpace=wrap;rounded=1;arcSize=12;size=0.23;fontSize=13;fontStyle=1" vertex="1" parent="32kZzinTKJD4sdX1_4fd-1">
          <mxGeometry x="592.95" y="739" width="100" height="60" as="geometry" />
        </mxCell>
        <mxCell id="FZcH5zqsUxlnSrDGplCy-127" style="edgeStyle=orthogonalEdgeStyle;rounded=1;orthogonalLoop=1;jettySize=auto;html=1;entryX=0.597;entryY=-0.019;entryDx=0;entryDy=0;entryPerimeter=0;fontSize=13;fontStyle=1" edge="1" parent="32kZzinTKJD4sdX1_4fd-1" source="FZcH5zqsUxlnSrDGplCy-113" target="FZcH5zqsUxlnSrDGplCy-118">
          <mxGeometry relative="1" as="geometry" />
        </mxCell>
        <mxCell id="FZcH5zqsUxlnSrDGplCy-119" value="input:&lt;br style=&quot;font-size: 13px;&quot;&gt;Description" style="shape=parallelogram;html=1;strokeWidth=2;perimeter=parallelogramPerimeter;whiteSpace=wrap;rounded=1;arcSize=12;size=0.23;fontSize=13;fontStyle=1" vertex="1" parent="32kZzinTKJD4sdX1_4fd-1">
          <mxGeometry x="808.95" y="737" width="100" height="60" as="geometry" />
        </mxCell>
        <mxCell id="FZcH5zqsUxlnSrDGplCy-129" style="edgeStyle=orthogonalEdgeStyle;rounded=1;orthogonalLoop=1;jettySize=auto;html=1;fontSize=13;fontStyle=1" edge="1" parent="32kZzinTKJD4sdX1_4fd-1" source="FZcH5zqsUxlnSrDGplCy-113" target="FZcH5zqsUxlnSrDGplCy-119">
          <mxGeometry relative="1" as="geometry">
            <Array as="points">
              <mxPoint x="872.95" y="673" />
            </Array>
          </mxGeometry>
        </mxCell>
        <mxCell id="FZcH5zqsUxlnSrDGplCy-120" value="input: price" style="shape=parallelogram;html=1;strokeWidth=2;perimeter=parallelogramPerimeter;whiteSpace=wrap;rounded=1;arcSize=12;size=0.23;fontSize=13;fontStyle=1" vertex="1" parent="32kZzinTKJD4sdX1_4fd-1">
          <mxGeometry x="700.95" y="739" width="100" height="60" as="geometry" />
        </mxCell>
        <mxCell id="FZcH5zqsUxlnSrDGplCy-128" style="edgeStyle=orthogonalEdgeStyle;rounded=1;orthogonalLoop=1;jettySize=auto;html=1;entryX=0.602;entryY=-0.007;entryDx=0;entryDy=0;entryPerimeter=0;fontSize=13;fontStyle=1" edge="1" parent="32kZzinTKJD4sdX1_4fd-1" source="FZcH5zqsUxlnSrDGplCy-113" target="FZcH5zqsUxlnSrDGplCy-120">
          <mxGeometry relative="1" as="geometry">
            <Array as="points">
              <mxPoint x="760.95" y="713" />
              <mxPoint x="760.95" y="713" />
            </Array>
          </mxGeometry>
        </mxCell>
        <mxCell id="FZcH5zqsUxlnSrDGplCy-138" style="edgeStyle=orthogonalEdgeStyle;rounded=1;orthogonalLoop=1;jettySize=auto;html=1;fontSize=13;fontStyle=1" edge="1" parent="32kZzinTKJD4sdX1_4fd-1" target="FZcH5zqsUxlnSrDGplCy-133">
          <mxGeometry relative="1" as="geometry">
            <mxPoint x="966.95" y="792" as="sourcePoint" />
            <mxPoint x="820.95" y="874" as="targetPoint" />
            <Array as="points">
              <mxPoint x="966.95" y="838" />
              <mxPoint x="820.95" y="838" />
            </Array>
          </mxGeometry>
        </mxCell>
        <mxCell id="FZcH5zqsUxlnSrDGplCy-121" value="choose:&lt;br style=&quot;font-size: 13px;&quot;&gt;Category" style="shape=parallelogram;html=1;strokeWidth=2;perimeter=parallelogramPerimeter;whiteSpace=wrap;rounded=1;arcSize=12;size=0.23;fontSize=13;fontStyle=1" vertex="1" parent="32kZzinTKJD4sdX1_4fd-1">
          <mxGeometry x="916.95" y="737" width="100" height="60" as="geometry" />
        </mxCell>
        <mxCell id="FZcH5zqsUxlnSrDGplCy-130" style="edgeStyle=orthogonalEdgeStyle;rounded=1;orthogonalLoop=1;jettySize=auto;html=1;entryX=0.606;entryY=0.003;entryDx=0;entryDy=0;entryPerimeter=0;fontSize=13;fontStyle=1" edge="1" parent="32kZzinTKJD4sdX1_4fd-1" source="FZcH5zqsUxlnSrDGplCy-113" target="FZcH5zqsUxlnSrDGplCy-121">
          <mxGeometry relative="1" as="geometry" />
        </mxCell>
        <mxCell id="FZcH5zqsUxlnSrDGplCy-140" style="edgeStyle=orthogonalEdgeStyle;rounded=1;orthogonalLoop=1;jettySize=auto;html=1;entryX=0.5;entryY=0;entryDx=0;entryDy=0;fontSize=13;fontStyle=1" edge="1" parent="32kZzinTKJD4sdX1_4fd-1" target="FZcH5zqsUxlnSrDGplCy-133">
          <mxGeometry relative="1" as="geometry">
            <mxPoint x="1074.95" y="792" as="sourcePoint" />
            <mxPoint x="820.95" y="873" as="targetPoint" />
            <Array as="points">
              <mxPoint x="1074.95" y="838" />
              <mxPoint x="820.95" y="838" />
            </Array>
          </mxGeometry>
        </mxCell>
        <mxCell id="FZcH5zqsUxlnSrDGplCy-122" value="input:&lt;br style=&quot;font-size: 13px;&quot;&gt;a picture" style="shape=parallelogram;html=1;strokeWidth=2;perimeter=parallelogramPerimeter;whiteSpace=wrap;rounded=1;arcSize=12;size=0.23;fontSize=13;fontStyle=1" vertex="1" parent="32kZzinTKJD4sdX1_4fd-1">
          <mxGeometry x="1024.95" y="737" width="100" height="60" as="geometry" />
        </mxCell>
        <mxCell id="FZcH5zqsUxlnSrDGplCy-131" style="edgeStyle=orthogonalEdgeStyle;rounded=1;orthogonalLoop=1;jettySize=auto;html=1;entryX=0.59;entryY=-0.009;entryDx=0;entryDy=0;entryPerimeter=0;fontSize=13;fontStyle=1" edge="1" parent="32kZzinTKJD4sdX1_4fd-1" source="FZcH5zqsUxlnSrDGplCy-113" target="FZcH5zqsUxlnSrDGplCy-122">
          <mxGeometry relative="1" as="geometry" />
        </mxCell>
        <mxCell id="FZcH5zqsUxlnSrDGplCy-139" style="edgeStyle=orthogonalEdgeStyle;rounded=1;orthogonalLoop=1;jettySize=auto;html=1;entryX=0.5;entryY=0;entryDx=0;entryDy=0;fontSize=13;fontStyle=1" edge="1" parent="32kZzinTKJD4sdX1_4fd-1" target="FZcH5zqsUxlnSrDGplCy-133">
          <mxGeometry relative="1" as="geometry">
            <mxPoint x="534.95" y="794" as="sourcePoint" />
            <mxPoint x="820.95" y="871" as="targetPoint" />
            <Array as="points">
              <mxPoint x="534.95" y="838" />
              <mxPoint x="820.95" y="838" />
            </Array>
          </mxGeometry>
        </mxCell>
        <mxCell id="FZcH5zqsUxlnSrDGplCy-123" value="input:Pizza&lt;br style=&quot;border-color: var(--border-color); font-size: 13px;&quot;&gt;name" style="shape=parallelogram;html=1;strokeWidth=2;perimeter=parallelogramPerimeter;whiteSpace=wrap;rounded=1;arcSize=12;size=0.23;fontSize=13;fontStyle=1" vertex="1" parent="32kZzinTKJD4sdX1_4fd-1">
          <mxGeometry x="484.95" y="739" width="100" height="60" as="geometry" />
        </mxCell>
        <mxCell id="FZcH5zqsUxlnSrDGplCy-126" style="edgeStyle=orthogonalEdgeStyle;rounded=1;orthogonalLoop=1;jettySize=auto;html=1;entryX=0.578;entryY=-0.007;entryDx=0;entryDy=0;entryPerimeter=0;fontSize=13;fontStyle=1" edge="1" parent="32kZzinTKJD4sdX1_4fd-1" source="FZcH5zqsUxlnSrDGplCy-113" target="FZcH5zqsUxlnSrDGplCy-123">
          <mxGeometry relative="1" as="geometry" />
        </mxCell>
        <mxCell id="FZcH5zqsUxlnSrDGplCy-144" style="edgeStyle=orthogonalEdgeStyle;rounded=1;orthogonalLoop=1;jettySize=auto;html=1;entryX=0;entryY=0.25;entryDx=0;entryDy=0;exitX=0;exitY=0.5;exitDx=0;exitDy=0;fontSize=13;fontStyle=1" edge="1" parent="32kZzinTKJD4sdX1_4fd-1">
          <mxGeometry relative="1" as="geometry">
            <mxPoint x="731.95" y="654" as="targetPoint" />
            <mxPoint x="759.95" y="990" as="sourcePoint" />
            <Array as="points">
              <mxPoint x="759" y="993" />
              <mxPoint x="424" y="993" />
              <mxPoint x="424" y="654" />
            </Array>
          </mxGeometry>
        </mxCell>
        <mxCell id="FZcH5zqsUxlnSrDGplCy-146" value="Continue Add &lt;br style=&quot;font-size: 13px;&quot;&gt;the new pizza" style="edgeLabel;html=1;align=center;verticalAlign=middle;resizable=0;points=[];rounded=1;fontSize=13;fontStyle=1" vertex="1" connectable="0" parent="FZcH5zqsUxlnSrDGplCy-144">
          <mxGeometry x="0.0571" y="-2" relative="1" as="geometry">
            <mxPoint x="-3" y="-67" as="offset" />
          </mxGeometry>
        </mxCell>
        <mxCell id="FZcH5zqsUxlnSrDGplCy-133" value="Click &quot;Add&quot; button" style="whiteSpace=wrap;html=1;strokeWidth=2;rounded=1;arcSize=12;fontSize=13;fontStyle=1" vertex="1" parent="32kZzinTKJD4sdX1_4fd-1">
          <mxGeometry x="760.95" y="877" width="120" height="60" as="geometry" />
        </mxCell>
        <mxCell id="FZcH5zqsUxlnSrDGplCy-135" style="edgeStyle=orthogonalEdgeStyle;rounded=1;orthogonalLoop=1;jettySize=auto;html=1;entryX=0.5;entryY=0;entryDx=0;entryDy=0;fontSize=13;fontStyle=1" edge="1" parent="32kZzinTKJD4sdX1_4fd-1" source="FZcH5zqsUxlnSrDGplCy-119" target="FZcH5zqsUxlnSrDGplCy-133">
          <mxGeometry relative="1" as="geometry" />
        </mxCell>
        <mxCell id="FZcH5zqsUxlnSrDGplCy-134" value="" style="edgeStyle=orthogonalEdgeStyle;rounded=1;orthogonalLoop=1;jettySize=auto;html=1;entryX=0.5;entryY=0;entryDx=0;entryDy=0;fontSize=13;fontStyle=1" edge="1" parent="32kZzinTKJD4sdX1_4fd-1" source="FZcH5zqsUxlnSrDGplCy-120" target="FZcH5zqsUxlnSrDGplCy-133">
          <mxGeometry relative="1" as="geometry" />
        </mxCell>
        <mxCell id="FZcH5zqsUxlnSrDGplCy-156" style="edgeStyle=orthogonalEdgeStyle;rounded=1;orthogonalLoop=1;jettySize=auto;html=1;entryX=0.5;entryY=1;entryDx=0;entryDy=0;fontSize=13;fontStyle=1" edge="1" parent="32kZzinTKJD4sdX1_4fd-1" target="FZcH5zqsUxlnSrDGplCy-151">
          <mxGeometry relative="1" as="geometry">
            <mxPoint x="861.95" y="996" as="sourcePoint" />
            <mxPoint x="1133" y="592" as="targetPoint" />
          </mxGeometry>
        </mxCell>
        <mxCell id="FZcH5zqsUxlnSrDGplCy-174" value="update information" style="edgeLabel;html=1;align=center;verticalAlign=middle;resizable=0;points=[];rounded=1;fontSize=13;fontStyle=1" vertex="1" connectable="0" parent="FZcH5zqsUxlnSrDGplCy-156">
          <mxGeometry x="-0.157" relative="1" as="geometry">
            <mxPoint x="61" y="-114" as="offset" />
          </mxGeometry>
        </mxCell>
        <mxCell id="FZcH5zqsUxlnSrDGplCy-141" value="Add successfully" style="whiteSpace=wrap;html=1;strokeWidth=2;rounded=1;arcSize=12;fontSize=13;fontStyle=1" vertex="1" parent="32kZzinTKJD4sdX1_4fd-1">
          <mxGeometry x="760.95" y="966" width="120" height="60" as="geometry" />
        </mxCell>
        <mxCell id="FZcH5zqsUxlnSrDGplCy-155" value="" style="edgeStyle=orthogonalEdgeStyle;rounded=1;orthogonalLoop=1;jettySize=auto;html=1;fontSize=13;fontStyle=1" edge="1" parent="32kZzinTKJD4sdX1_4fd-1" source="FZcH5zqsUxlnSrDGplCy-133" target="FZcH5zqsUxlnSrDGplCy-141">
          <mxGeometry relative="1" as="geometry" />
        </mxCell>
        <mxCell id="FZcH5zqsUxlnSrDGplCy-153" value="" style="edgeStyle=orthogonalEdgeStyle;rounded=1;orthogonalLoop=1;jettySize=auto;html=1;fontSize=13;fontStyle=1" edge="1" parent="32kZzinTKJD4sdX1_4fd-1" source="FZcH5zqsUxlnSrDGplCy-148" target="FZcH5zqsUxlnSrDGplCy-113">
          <mxGeometry relative="1" as="geometry" />
        </mxCell>
        <mxCell id="FZcH5zqsUxlnSrDGplCy-148" value="Menu management" style="whiteSpace=wrap;html=1;rounded=1;strokeWidth=2;fontSize=13;fontStyle=1" vertex="1" parent="32kZzinTKJD4sdX1_4fd-1">
          <mxGeometry x="732" y="532" width="120" height="60" as="geometry" />
        </mxCell>
        <mxCell id="FZcH5zqsUxlnSrDGplCy-149" value="" style="edgeStyle=orthogonalEdgeStyle;rounded=1;orthogonalLoop=1;jettySize=auto;html=1;fontSize=13;fontStyle=1" edge="1" parent="32kZzinTKJD4sdX1_4fd-1" source="FZcH5zqsUxlnSrDGplCy-109" target="FZcH5zqsUxlnSrDGplCy-148">
          <mxGeometry relative="1" as="geometry" />
        </mxCell>
        <mxCell id="FZcH5zqsUxlnSrDGplCy-151" value="Menu information list&lt;br style=&quot;font-size: 13px;&quot;&gt;（the present pizza information）" style="whiteSpace=wrap;html=1;rounded=1;strokeWidth=2;fontSize=13;fontStyle=1" vertex="1" parent="32kZzinTKJD4sdX1_4fd-1">
          <mxGeometry x="1120" y="643" width="120" height="60" as="geometry" />
        </mxCell>
        <mxCell id="FZcH5zqsUxlnSrDGplCy-152" value="" style="edgeStyle=orthogonalEdgeStyle;rounded=1;orthogonalLoop=1;jettySize=auto;html=1;fontSize=13;fontStyle=1" edge="1" parent="32kZzinTKJD4sdX1_4fd-1" source="FZcH5zqsUxlnSrDGplCy-148" target="FZcH5zqsUxlnSrDGplCy-151">
          <mxGeometry relative="1" as="geometry" />
        </mxCell>
        <mxCell id="FZcH5zqsUxlnSrDGplCy-161" value="Menu categories management" style="whiteSpace=wrap;html=1;rounded=1;strokeWidth=2;fontSize=13;fontStyle=1" vertex="1" parent="32kZzinTKJD4sdX1_4fd-1">
          <mxGeometry x="959" y="1134" width="120" height="60" as="geometry" />
        </mxCell>
        <mxCell id="FZcH5zqsUxlnSrDGplCy-162" value="" style="edgeStyle=orthogonalEdgeStyle;rounded=1;orthogonalLoop=1;jettySize=auto;html=1;fontSize=13;fontStyle=1" edge="1" parent="32kZzinTKJD4sdX1_4fd-1" source="FZcH5zqsUxlnSrDGplCy-109" target="FZcH5zqsUxlnSrDGplCy-161">
          <mxGeometry relative="1" as="geometry" />
        </mxCell>
        <mxCell id="FZcH5zqsUxlnSrDGplCy-163" value="Add new category" style="whiteSpace=wrap;html=1;rounded=1;strokeWidth=2;fontSize=13;fontStyle=1" vertex="1" parent="32kZzinTKJD4sdX1_4fd-1">
          <mxGeometry x="959" y="1245" width="120" height="60" as="geometry" />
        </mxCell>
        <mxCell id="FZcH5zqsUxlnSrDGplCy-164" value="" style="edgeStyle=orthogonalEdgeStyle;rounded=1;orthogonalLoop=1;jettySize=auto;html=1;fontSize=13;fontStyle=1" edge="1" parent="32kZzinTKJD4sdX1_4fd-1" source="FZcH5zqsUxlnSrDGplCy-161" target="FZcH5zqsUxlnSrDGplCy-163">
          <mxGeometry relative="1" as="geometry" />
        </mxCell>
        <mxCell id="FZcH5zqsUxlnSrDGplCy-165" value="input:&lt;br style=&quot;border-color: var(--border-color); font-size: 13px;&quot;&gt;Pizzas&lt;br style=&quot;font-size: 13px;&quot;&gt;&amp;nbsp;category" style="shape=parallelogram;html=1;strokeWidth=2;perimeter=parallelogramPerimeter;whiteSpace=wrap;rounded=1;arcSize=12;size=0.23;fontSize=13;fontStyle=1" vertex="1" parent="32kZzinTKJD4sdX1_4fd-1">
          <mxGeometry x="969" y="1339" width="100" height="60" as="geometry" />
        </mxCell>
        <mxCell id="FZcH5zqsUxlnSrDGplCy-166" value="" style="edgeStyle=orthogonalEdgeStyle;rounded=1;orthogonalLoop=1;jettySize=auto;html=1;fontSize=13;fontStyle=1" edge="1" parent="32kZzinTKJD4sdX1_4fd-1" source="FZcH5zqsUxlnSrDGplCy-163" target="FZcH5zqsUxlnSrDGplCy-165">
          <mxGeometry relative="1" as="geometry" />
        </mxCell>
        <mxCell id="FZcH5zqsUxlnSrDGplCy-167" value="Click &quot;Add&quot; button" style="whiteSpace=wrap;html=1;strokeWidth=2;rounded=1;arcSize=12;fontSize=13;fontStyle=1" vertex="1" parent="32kZzinTKJD4sdX1_4fd-1">
          <mxGeometry x="959" y="1456" width="120" height="60" as="geometry" />
        </mxCell>
        <mxCell id="FZcH5zqsUxlnSrDGplCy-168" value="" style="edgeStyle=orthogonalEdgeStyle;rounded=1;orthogonalLoop=1;jettySize=auto;html=1;fontSize=13;fontStyle=1" edge="1" parent="32kZzinTKJD4sdX1_4fd-1" source="FZcH5zqsUxlnSrDGplCy-165" target="FZcH5zqsUxlnSrDGplCy-167">
          <mxGeometry relative="1" as="geometry" />
        </mxCell>
        <mxCell id="FZcH5zqsUxlnSrDGplCy-169" value="Catogory information list" style="whiteSpace=wrap;html=1;rounded=1;strokeWidth=2;fontSize=13;fontStyle=1" vertex="1" parent="32kZzinTKJD4sdX1_4fd-1">
          <mxGeometry x="1153" y="1245" width="120" height="60" as="geometry" />
        </mxCell>
        <mxCell id="FZcH5zqsUxlnSrDGplCy-170" value="" style="edgeStyle=orthogonalEdgeStyle;rounded=1;orthogonalLoop=1;jettySize=auto;html=1;fontSize=13;fontStyle=1" edge="1" parent="32kZzinTKJD4sdX1_4fd-1" source="FZcH5zqsUxlnSrDGplCy-161" target="FZcH5zqsUxlnSrDGplCy-169">
          <mxGeometry relative="1" as="geometry" />
        </mxCell>
        <mxCell id="FZcH5zqsUxlnSrDGplCy-173" style="edgeStyle=orthogonalEdgeStyle;rounded=1;orthogonalLoop=1;jettySize=auto;html=1;entryX=0.5;entryY=1;entryDx=0;entryDy=0;fontSize=13;fontStyle=1" edge="1" parent="32kZzinTKJD4sdX1_4fd-1" source="FZcH5zqsUxlnSrDGplCy-171" target="FZcH5zqsUxlnSrDGplCy-169">
          <mxGeometry relative="1" as="geometry" />
        </mxCell>
        <mxCell id="FZcH5zqsUxlnSrDGplCy-175" value="update information" style="edgeLabel;html=1;align=center;verticalAlign=middle;resizable=0;points=[];rounded=1;fontSize=13;fontStyle=1" vertex="1" connectable="0" parent="FZcH5zqsUxlnSrDGplCy-173">
          <mxGeometry x="0.2049" y="3" relative="1" as="geometry">
            <mxPoint y="9" as="offset" />
          </mxGeometry>
        </mxCell>
        <mxCell id="syN6TcFo2xHR6YDbWY1e-9" style="edgeStyle=orthogonalEdgeStyle;rounded=1;orthogonalLoop=1;jettySize=auto;html=1;entryX=0;entryY=0.5;entryDx=0;entryDy=0;fontSize=13;fontStyle=1" edge="1" parent="32kZzinTKJD4sdX1_4fd-1" source="FZcH5zqsUxlnSrDGplCy-171" target="FZcH5zqsUxlnSrDGplCy-163">
          <mxGeometry relative="1" as="geometry">
            <mxPoint x="950" y="1274" as="targetPoint" />
            <Array as="points">
              <mxPoint x="939" y="1598" />
              <mxPoint x="939" y="1275" />
            </Array>
          </mxGeometry>
        </mxCell>
        <mxCell id="syN6TcFo2xHR6YDbWY1e-10" value="Continue Add&lt;br style=&quot;border-color: var(--border-color); font-size: 13px;&quot;&gt;catogory" style="edgeLabel;html=1;align=center;verticalAlign=middle;resizable=0;points=[];rounded=1;fontSize=13;fontStyle=1" vertex="1" connectable="0" parent="syN6TcFo2xHR6YDbWY1e-9">
          <mxGeometry x="0.2322" y="4" relative="1" as="geometry">
            <mxPoint x="-4" y="-1" as="offset" />
          </mxGeometry>
        </mxCell>
        <mxCell id="FZcH5zqsUxlnSrDGplCy-171" value="Add successfully" style="whiteSpace=wrap;html=1;strokeWidth=2;rounded=1;arcSize=12;fontSize=13;fontStyle=1" vertex="1" parent="32kZzinTKJD4sdX1_4fd-1">
          <mxGeometry x="959" y="1568" width="120" height="60" as="geometry" />
        </mxCell>
        <mxCell id="FZcH5zqsUxlnSrDGplCy-172" value="" style="edgeStyle=orthogonalEdgeStyle;rounded=1;orthogonalLoop=1;jettySize=auto;html=1;fontSize=13;fontStyle=1" edge="1" parent="32kZzinTKJD4sdX1_4fd-1" source="FZcH5zqsUxlnSrDGplCy-167" target="FZcH5zqsUxlnSrDGplCy-171">
          <mxGeometry relative="1" as="geometry" />
        </mxCell>
        <mxCell id="FZcH5zqsUxlnSrDGplCy-177" value="announcement management" style="whiteSpace=wrap;html=1;rounded=1;strokeWidth=2;fontSize=13;fontStyle=1" vertex="1" parent="32kZzinTKJD4sdX1_4fd-1">
          <mxGeometry x="200" y="532" width="120" height="60" as="geometry" />
        </mxCell>
        <mxCell id="FZcH5zqsUxlnSrDGplCy-178" value="" style="edgeStyle=orthogonalEdgeStyle;rounded=1;orthogonalLoop=1;jettySize=auto;html=1;fontSize=13;fontStyle=1" edge="1" parent="32kZzinTKJD4sdX1_4fd-1" source="FZcH5zqsUxlnSrDGplCy-109" target="FZcH5zqsUxlnSrDGplCy-177">
          <mxGeometry relative="1" as="geometry" />
        </mxCell>
        <mxCell id="syN6TcFo2xHR6YDbWY1e-1" value="Add new notice" style="whiteSpace=wrap;html=1;rounded=1;strokeWidth=2;fontSize=13;fontStyle=1" vertex="1" parent="32kZzinTKJD4sdX1_4fd-1">
          <mxGeometry x="200" y="643" width="120" height="60" as="geometry" />
        </mxCell>
        <mxCell id="syN6TcFo2xHR6YDbWY1e-2" value="" style="edgeStyle=orthogonalEdgeStyle;rounded=1;orthogonalLoop=1;jettySize=auto;html=1;fontSize=13;fontStyle=1" edge="1" parent="32kZzinTKJD4sdX1_4fd-1" source="FZcH5zqsUxlnSrDGplCy-177" target="syN6TcFo2xHR6YDbWY1e-1">
          <mxGeometry relative="1" as="geometry" />
        </mxCell>
        <mxCell id="syN6TcFo2xHR6YDbWY1e-3" value="input:notice&amp;nbsp;&lt;br style=&quot;font-size: 13px;&quot;&gt;title" style="shape=parallelogram;html=1;strokeWidth=2;perimeter=parallelogramPerimeter;whiteSpace=wrap;rounded=1;arcSize=12;size=0.23;fontSize=13;fontStyle=1" vertex="1" parent="32kZzinTKJD4sdX1_4fd-1">
          <mxGeometry x="144" y="737" width="100" height="60" as="geometry" />
        </mxCell>
        <mxCell id="syN6TcFo2xHR6YDbWY1e-5" style="edgeStyle=orthogonalEdgeStyle;rounded=1;orthogonalLoop=1;jettySize=auto;html=1;entryX=0.5;entryY=0;entryDx=0;entryDy=0;fontSize=13;fontStyle=1" edge="1" parent="32kZzinTKJD4sdX1_4fd-1" source="syN6TcFo2xHR6YDbWY1e-1" target="syN6TcFo2xHR6YDbWY1e-3">
          <mxGeometry relative="1" as="geometry" />
        </mxCell>
        <mxCell id="syN6TcFo2xHR6YDbWY1e-4" value="input:notice&amp;nbsp;&lt;br style=&quot;font-size: 13px;&quot;&gt;content" style="shape=parallelogram;html=1;strokeWidth=2;perimeter=parallelogramPerimeter;whiteSpace=wrap;rounded=1;arcSize=12;size=0.23;fontSize=13;fontStyle=1" vertex="1" parent="32kZzinTKJD4sdX1_4fd-1">
          <mxGeometry x="256" y="737" width="100" height="60" as="geometry" />
        </mxCell>
        <mxCell id="syN6TcFo2xHR6YDbWY1e-6" style="edgeStyle=orthogonalEdgeStyle;rounded=1;orthogonalLoop=1;jettySize=auto;html=1;entryX=0.75;entryY=0;entryDx=0;entryDy=0;fontSize=13;fontStyle=1" edge="1" parent="32kZzinTKJD4sdX1_4fd-1" source="syN6TcFo2xHR6YDbWY1e-1" target="syN6TcFo2xHR6YDbWY1e-4">
          <mxGeometry relative="1" as="geometry" />
        </mxCell>
        <mxCell id="syN6TcFo2xHR6YDbWY1e-7" value="Click &quot;Add&quot; button" style="whiteSpace=wrap;html=1;strokeWidth=2;rounded=1;arcSize=12;fontSize=13;fontStyle=1" vertex="1" parent="32kZzinTKJD4sdX1_4fd-1">
          <mxGeometry x="196" y="854" width="120" height="60" as="geometry" />
        </mxCell>
        <mxCell id="syN6TcFo2xHR6YDbWY1e-11" style="edgeStyle=orthogonalEdgeStyle;rounded=1;orthogonalLoop=1;jettySize=auto;html=1;entryX=0.5;entryY=0;entryDx=0;entryDy=0;fontSize=13;fontStyle=1" edge="1" parent="32kZzinTKJD4sdX1_4fd-1" source="syN6TcFo2xHR6YDbWY1e-3" target="syN6TcFo2xHR6YDbWY1e-7">
          <mxGeometry relative="1" as="geometry" />
        </mxCell>
        <mxCell id="syN6TcFo2xHR6YDbWY1e-12" style="edgeStyle=orthogonalEdgeStyle;rounded=1;orthogonalLoop=1;jettySize=auto;html=1;entryX=0.5;entryY=0;entryDx=0;entryDy=0;fontSize=13;fontStyle=1" edge="1" parent="32kZzinTKJD4sdX1_4fd-1" source="syN6TcFo2xHR6YDbWY1e-4" target="syN6TcFo2xHR6YDbWY1e-7">
          <mxGeometry relative="1" as="geometry" />
        </mxCell>
        <mxCell id="syN6TcFo2xHR6YDbWY1e-19" style="edgeStyle=orthogonalEdgeStyle;rounded=1;orthogonalLoop=1;jettySize=auto;html=1;entryX=1;entryY=0.25;entryDx=0;entryDy=0;fontSize=13;fontStyle=1" edge="1" parent="32kZzinTKJD4sdX1_4fd-1" source="syN6TcFo2xHR6YDbWY1e-8" target="syN6TcFo2xHR6YDbWY1e-1">
          <mxGeometry relative="1" as="geometry">
            <mxPoint x="368" y="658.0000000000005" as="targetPoint" />
            <Array as="points">
              <mxPoint x="368" y="996" />
              <mxPoint x="368" y="658" />
            </Array>
          </mxGeometry>
        </mxCell>
        <mxCell id="syN6TcFo2xHR6YDbWY1e-20" value="Continue Add&lt;br style=&quot;border-color: var(--border-color); font-size: 13px;&quot;&gt;new notices" style="edgeLabel;html=1;align=center;verticalAlign=middle;resizable=0;points=[];rounded=1;fontSize=13;fontStyle=1" vertex="1" connectable="0" parent="syN6TcFo2xHR6YDbWY1e-19">
          <mxGeometry x="-0.2691" relative="1" as="geometry">
            <mxPoint as="offset" />
          </mxGeometry>
        </mxCell>
        <mxCell id="syN6TcFo2xHR6YDbWY1e-8" value="Add successfully" style="whiteSpace=wrap;html=1;strokeWidth=2;rounded=1;arcSize=12;fontSize=13;fontStyle=1" vertex="1" parent="32kZzinTKJD4sdX1_4fd-1">
          <mxGeometry x="196" y="966" width="120" height="60" as="geometry" />
        </mxCell>
        <mxCell id="syN6TcFo2xHR6YDbWY1e-14" style="edgeStyle=orthogonalEdgeStyle;rounded=1;orthogonalLoop=1;jettySize=auto;html=1;entryX=0.5;entryY=0;entryDx=0;entryDy=0;fontSize=13;fontStyle=1" edge="1" parent="32kZzinTKJD4sdX1_4fd-1" source="syN6TcFo2xHR6YDbWY1e-7" target="syN6TcFo2xHR6YDbWY1e-8">
          <mxGeometry relative="1" as="geometry" />
        </mxCell>
        <mxCell id="syN6TcFo2xHR6YDbWY1e-15" value="announcement list" style="whiteSpace=wrap;html=1;rounded=1;strokeWidth=2;fontSize=13;fontStyle=1" vertex="1" parent="32kZzinTKJD4sdX1_4fd-1">
          <mxGeometry y="643" width="120" height="60" as="geometry" />
        </mxCell>
        <mxCell id="syN6TcFo2xHR6YDbWY1e-16" value="" style="edgeStyle=orthogonalEdgeStyle;rounded=1;orthogonalLoop=1;jettySize=auto;html=1;fontSize=13;fontStyle=1" edge="1" parent="32kZzinTKJD4sdX1_4fd-1" source="FZcH5zqsUxlnSrDGplCy-177" target="syN6TcFo2xHR6YDbWY1e-15">
          <mxGeometry relative="1" as="geometry" />
        </mxCell>
        <mxCell id="syN6TcFo2xHR6YDbWY1e-17" style="edgeStyle=orthogonalEdgeStyle;rounded=1;orthogonalLoop=1;jettySize=auto;html=1;entryX=0.5;entryY=1;entryDx=0;entryDy=0;fontSize=13;fontStyle=1" edge="1" parent="32kZzinTKJD4sdX1_4fd-1" source="syN6TcFo2xHR6YDbWY1e-8" target="syN6TcFo2xHR6YDbWY1e-15">
          <mxGeometry relative="1" as="geometry" />
        </mxCell>
        <mxCell id="syN6TcFo2xHR6YDbWY1e-18" value="update information" style="edgeLabel;html=1;align=center;verticalAlign=middle;resizable=0;points=[];rounded=1;fontSize=13;fontStyle=1" vertex="1" connectable="0" parent="syN6TcFo2xHR6YDbWY1e-17">
          <mxGeometry x="0.4121" y="4" relative="1" as="geometry">
            <mxPoint y="51" as="offset" />
          </mxGeometry>
        </mxCell>
        <mxCell id="_B1_CrF3TVi6BJC2zmLu-2" value="Order information management" style="whiteSpace=wrap;html=1;rounded=1;strokeWidth=2;fontSize=13;fontStyle=1" vertex="1" parent="32kZzinTKJD4sdX1_4fd-1">
          <mxGeometry x="416.45000000000005" y="1148" width="120" height="60" as="geometry" />
        </mxCell>
        <mxCell id="_B1_CrF3TVi6BJC2zmLu-3" value="" style="edgeStyle=orthogonalEdgeStyle;rounded=1;orthogonalLoop=1;jettySize=auto;html=1;fontSize=13;fontStyle=1" edge="1" parent="32kZzinTKJD4sdX1_4fd-1" source="FZcH5zqsUxlnSrDGplCy-109" target="_B1_CrF3TVi6BJC2zmLu-2">
          <mxGeometry relative="1" as="geometry" />
        </mxCell>
        <mxCell id="p2-AreiNcDw5725b48cl-4" value="choose from navigator bar" style="edgeLabel;html=1;align=center;verticalAlign=middle;resizable=0;points=[];rounded=1;fontSize=13;fontStyle=1" vertex="1" connectable="0" parent="_B1_CrF3TVi6BJC2zmLu-3">
          <mxGeometry x="-0.5251" y="2" relative="1" as="geometry">
            <mxPoint as="offset" />
          </mxGeometry>
        </mxCell>
        <mxCell id="_B1_CrF3TVi6BJC2zmLu-4" value="order information list" style="whiteSpace=wrap;html=1;rounded=1;strokeWidth=2;fontSize=13;fontStyle=1" vertex="1" parent="32kZzinTKJD4sdX1_4fd-1">
          <mxGeometry x="612.45" y="1259" width="120" height="60" as="geometry" />
        </mxCell>
        <mxCell id="_B1_CrF3TVi6BJC2zmLu-5" value="" style="edgeStyle=orthogonalEdgeStyle;rounded=1;orthogonalLoop=1;jettySize=auto;html=1;fontSize=13;fontStyle=1" edge="1" parent="32kZzinTKJD4sdX1_4fd-1" source="_B1_CrF3TVi6BJC2zmLu-2" target="_B1_CrF3TVi6BJC2zmLu-4">
          <mxGeometry relative="1" as="geometry" />
        </mxCell>
        <mxCell id="_B1_CrF3TVi6BJC2zmLu-6" value="sales order inquiry（check ordrers）" style="whiteSpace=wrap;html=1;rounded=1;strokeWidth=2;fontSize=13;fontStyle=1" vertex="1" parent="32kZzinTKJD4sdX1_4fd-1">
          <mxGeometry x="416.45000000000005" y="1259" width="120" height="60" as="geometry" />
        </mxCell>
        <mxCell id="_B1_CrF3TVi6BJC2zmLu-7" value="" style="edgeStyle=orthogonalEdgeStyle;rounded=1;orthogonalLoop=1;jettySize=auto;html=1;fontSize=13;fontStyle=1" edge="1" parent="32kZzinTKJD4sdX1_4fd-1" source="_B1_CrF3TVi6BJC2zmLu-2" target="_B1_CrF3TVi6BJC2zmLu-6">
          <mxGeometry relative="1" as="geometry" />
        </mxCell>
        <mxCell id="_B1_CrF3TVi6BJC2zmLu-8" value="" style="verticalLabelPosition=bottom;verticalAlign=top;html=1;shape=mxgraph.flowchart.parallel_mode;pointerEvents=1;rounded=1;fontSize=13;fontStyle=1" vertex="1" parent="32kZzinTKJD4sdX1_4fd-1">
          <mxGeometry x="385.45000000000005" y="1413" width="182" height="40" as="geometry" />
        </mxCell>
        <mxCell id="_B1_CrF3TVi6BJC2zmLu-11" value="" style="edgeStyle=orthogonalEdgeStyle;rounded=1;orthogonalLoop=1;jettySize=auto;html=1;fontSize=13;fontStyle=1" edge="1" parent="32kZzinTKJD4sdX1_4fd-1" source="_B1_CrF3TVi6BJC2zmLu-6" target="_B1_CrF3TVi6BJC2zmLu-8">
          <mxGeometry relative="1" as="geometry" />
        </mxCell>
        <mxCell id="_B1_CrF3TVi6BJC2zmLu-15" value="Search by &lt;br style=&quot;font-size: 13px;&quot;&gt;pizza name" style="edgeLabel;html=1;align=center;verticalAlign=middle;resizable=0;points=[];rounded=1;fontSize=13;fontStyle=1" vertex="1" connectable="0" parent="_B1_CrF3TVi6BJC2zmLu-11">
          <mxGeometry x="0.2215" y="1" relative="1" as="geometry">
            <mxPoint y="6" as="offset" />
          </mxGeometry>
        </mxCell>
        <mxCell id="_B1_CrF3TVi6BJC2zmLu-12" style="edgeStyle=orthogonalEdgeStyle;rounded=1;orthogonalLoop=1;jettySize=auto;html=1;entryX=0;entryY=0;entryDx=0;entryDy=0;entryPerimeter=0;fontSize=13;fontStyle=1" edge="1" parent="32kZzinTKJD4sdX1_4fd-1" source="_B1_CrF3TVi6BJC2zmLu-6" target="_B1_CrF3TVi6BJC2zmLu-8">
          <mxGeometry relative="1" as="geometry" />
        </mxCell>
        <mxCell id="_B1_CrF3TVi6BJC2zmLu-14" value="Search by&lt;br style=&quot;font-size: 13px;&quot;&gt;UserID" style="edgeLabel;html=1;align=center;verticalAlign=middle;resizable=0;points=[];rounded=1;fontSize=13;fontStyle=1" vertex="1" connectable="0" parent="_B1_CrF3TVi6BJC2zmLu-12">
          <mxGeometry x="0.6678" relative="1" as="geometry">
            <mxPoint as="offset" />
          </mxGeometry>
        </mxCell>
        <mxCell id="_B1_CrF3TVi6BJC2zmLu-13" style="edgeStyle=orthogonalEdgeStyle;rounded=1;orthogonalLoop=1;jettySize=auto;html=1;entryX=1;entryY=0;entryDx=0;entryDy=0;entryPerimeter=0;fontSize=13;fontStyle=1" edge="1" parent="32kZzinTKJD4sdX1_4fd-1" source="_B1_CrF3TVi6BJC2zmLu-6" target="_B1_CrF3TVi6BJC2zmLu-8">
          <mxGeometry relative="1" as="geometry" />
        </mxCell>
        <mxCell id="_B1_CrF3TVi6BJC2zmLu-16" value="Search by&lt;br style=&quot;font-size: 13px;&quot;&gt;Sales date" style="edgeLabel;html=1;align=center;verticalAlign=middle;resizable=0;points=[];rounded=1;fontSize=13;fontStyle=1" vertex="1" connectable="0" parent="_B1_CrF3TVi6BJC2zmLu-13">
          <mxGeometry x="0.6355" y="2" relative="1" as="geometry">
            <mxPoint y="6" as="offset" />
          </mxGeometry>
        </mxCell>
        <mxCell id="_B1_CrF3TVi6BJC2zmLu-17" value="List of&amp;nbsp;Sales order search result information list" style="whiteSpace=wrap;html=1;verticalAlign=top;rounded=1;fontSize=13;fontStyle=1" vertex="1" parent="32kZzinTKJD4sdX1_4fd-1">
          <mxGeometry x="416.45000000000005" y="1493" width="120" height="60" as="geometry" />
        </mxCell>
        <mxCell id="_B1_CrF3TVi6BJC2zmLu-18" value="" style="edgeStyle=orthogonalEdgeStyle;rounded=1;orthogonalLoop=1;jettySize=auto;html=1;fontSize=13;fontStyle=1" edge="1" parent="32kZzinTKJD4sdX1_4fd-1" source="_B1_CrF3TVi6BJC2zmLu-8" target="_B1_CrF3TVi6BJC2zmLu-17">
          <mxGeometry relative="1" as="geometry" />
        </mxCell>
        <mxCell id="_B1_CrF3TVi6BJC2zmLu-23" value="Daily sales stastics" style="whiteSpace=wrap;html=1;rounded=1;strokeWidth=2;fontSize=13;fontStyle=1" vertex="1" parent="32kZzinTKJD4sdX1_4fd-1">
          <mxGeometry x="780.45" y="1260" width="120" height="60" as="geometry" />
        </mxCell>
        <mxCell id="_B1_CrF3TVi6BJC2zmLu-24" value="" style="edgeStyle=orthogonalEdgeStyle;rounded=1;orthogonalLoop=1;jettySize=auto;html=1;fontSize=13;fontStyle=1" edge="1" parent="32kZzinTKJD4sdX1_4fd-1" source="_B1_CrF3TVi6BJC2zmLu-2" target="_B1_CrF3TVi6BJC2zmLu-23">
          <mxGeometry relative="1" as="geometry" />
        </mxCell>
        <mxCell id="_B1_CrF3TVi6BJC2zmLu-26" value="Log out" style="whiteSpace=wrap;html=1;rounded=1;strokeWidth=2;fontSize=13;fontStyle=1" vertex="1" parent="32kZzinTKJD4sdX1_4fd-1">
          <mxGeometry x="1124.95" y="295" width="120" height="60" as="geometry" />
        </mxCell>
        <mxCell id="_B1_CrF3TVi6BJC2zmLu-27" value="" style="edgeStyle=orthogonalEdgeStyle;rounded=1;orthogonalLoop=1;jettySize=auto;html=1;fontSize=13;fontStyle=1" edge="1" parent="32kZzinTKJD4sdX1_4fd-1" source="FZcH5zqsUxlnSrDGplCy-109" target="_B1_CrF3TVi6BJC2zmLu-26">
          <mxGeometry relative="1" as="geometry" />
        </mxCell>
        <mxCell id="p2-AreiNcDw5725b48cl-5" value="choose from navigator bar" style="edgeLabel;html=1;align=center;verticalAlign=middle;resizable=0;points=[];rounded=1;fontSize=13;fontStyle=1" vertex="1" connectable="0" parent="_B1_CrF3TVi6BJC2zmLu-27">
          <mxGeometry x="-0.1576" y="-1" relative="1" as="geometry">
            <mxPoint as="offset" />
          </mxGeometry>
        </mxCell>
        <mxCell id="_B1_CrF3TVi6BJC2zmLu-32" value="end" style="strokeWidth=2;html=1;shape=mxgraph.flowchart.terminator;whiteSpace=wrap;rounded=1;fontSize=13;fontStyle=1" vertex="1" parent="32kZzinTKJD4sdX1_4fd-1">
          <mxGeometry x="1309.95" y="295" width="100" height="60" as="geometry" />
        </mxCell>
        <mxCell id="_B1_CrF3TVi6BJC2zmLu-33" style="edgeStyle=orthogonalEdgeStyle;rounded=1;orthogonalLoop=1;jettySize=auto;html=1;entryX=0;entryY=0.5;entryDx=0;entryDy=0;entryPerimeter=0;fontSize=13;fontStyle=1" edge="1" parent="32kZzinTKJD4sdX1_4fd-1" source="_B1_CrF3TVi6BJC2zmLu-26" target="_B1_CrF3TVi6BJC2zmLu-32">
          <mxGeometry relative="1" as="geometry" />
        </mxCell>
        <mxCell id="oHoQWinwYWFs-Grs3lX1-1" value="" style="group;rounded=1;fontSize=13;fontStyle=1" vertex="1" connectable="0" parent="1">
          <mxGeometry x="-844" y="-2017" width="1278" height="660" as="geometry" />
        </mxCell>
        <mxCell id="X4v2Hm8I28YGBb-Wsmpa-3" value="" style="edgeStyle=orthogonalEdgeStyle;rounded=1;orthogonalLoop=1;jettySize=auto;html=1;labelBackgroundColor=none;fontColor=default;fontSize=13;fontStyle=1" edge="1" parent="oHoQWinwYWFs-Grs3lX1-1" source="X4v2Hm8I28YGBb-Wsmpa-1">
          <mxGeometry relative="1" as="geometry">
            <mxPoint x="522" y="138" as="targetPoint" />
          </mxGeometry>
        </mxCell>
        <mxCell id="X4v2Hm8I28YGBb-Wsmpa-1" value="&lt;h1 style=&quot;font-size: 13px;&quot;&gt;&lt;font style=&quot;font-size: 13px;&quot;&gt;start as a user&lt;/font&gt;&lt;/h1&gt;" style="strokeWidth=2;html=1;shape=mxgraph.flowchart.start_2;whiteSpace=wrap;rounded=1;labelBackgroundColor=none;align=center;fontSize=13;fontStyle=1" vertex="1" parent="oHoQWinwYWFs-Grs3lX1-1">
          <mxGeometry x="479" width="88" height="84" as="geometry" />
        </mxCell>
        <mxCell id="FZcH5zqsUxlnSrDGplCy-25" value="" style="edgeStyle=orthogonalEdgeStyle;rounded=1;orthogonalLoop=1;jettySize=auto;html=1;fontSize=13;fontStyle=1" edge="1" parent="oHoQWinwYWFs-Grs3lX1-1" source="X4v2Hm8I28YGBb-Wsmpa-4">
          <mxGeometry relative="1" as="geometry">
            <mxPoint x="522" y="236" as="targetPoint" />
          </mxGeometry>
        </mxCell>
        <mxCell id="FZcH5zqsUxlnSrDGplCy-59" style="edgeStyle=orthogonalEdgeStyle;rounded=1;orthogonalLoop=1;jettySize=auto;html=1;fontSize=13;fontStyle=1" edge="1" parent="oHoQWinwYWFs-Grs3lX1-1">
          <mxGeometry relative="1" as="geometry">
            <mxPoint x="984.0588235294117" y="236" as="targetPoint" />
            <mxPoint x="526" y="168.01234567901247" as="sourcePoint" />
            <Array as="points">
              <mxPoint x="984" y="168" />
            </Array>
          </mxGeometry>
        </mxCell>
        <mxCell id="X4v2Hm8I28YGBb-Wsmpa-4" value="Main page" style="whiteSpace=wrap;html=1;strokeWidth=2;rounded=1;labelBackgroundColor=none;fontSize=13;fontStyle=1" vertex="1" parent="oHoQWinwYWFs-Grs3lX1-1">
          <mxGeometry x="462" y="138" width="120" height="60" as="geometry" />
        </mxCell>
        <mxCell id="FZcH5zqsUxlnSrDGplCy-15" value="" style="edgeStyle=orthogonalEdgeStyle;rounded=1;orthogonalLoop=1;jettySize=auto;html=1;fontSize=13;fontStyle=1" edge="1" parent="oHoQWinwYWFs-Grs3lX1-1" source="FZcH5zqsUxlnSrDGplCy-1">
          <mxGeometry relative="1" as="geometry">
            <mxPoint x="524" y="376" as="targetPoint" />
          </mxGeometry>
        </mxCell>
        <mxCell id="FZcH5zqsUxlnSrDGplCy-16" value="put into cart" style="edgeLabel;html=1;align=center;verticalAlign=middle;resizable=0;points=[];rounded=1;fontSize=13;fontStyle=1" vertex="1" connectable="0" parent="FZcH5zqsUxlnSrDGplCy-15">
          <mxGeometry x="-0.1605" y="-2" relative="1" as="geometry">
            <mxPoint as="offset" />
          </mxGeometry>
        </mxCell>
        <mxCell id="FZcH5zqsUxlnSrDGplCy-1" value="choose pizzas" style="whiteSpace=wrap;html=1;strokeWidth=2;rounded=1;labelBackgroundColor=none;fontSize=13;fontStyle=1" vertex="1" parent="oHoQWinwYWFs-Grs3lX1-1">
          <mxGeometry x="462" y="236" width="120" height="60" as="geometry" />
        </mxCell>
        <mxCell id="FZcH5zqsUxlnSrDGplCy-19" value="" style="edgeStyle=orthogonalEdgeStyle;rounded=1;orthogonalLoop=1;jettySize=auto;html=1;entryX=1;entryY=0.5;entryDx=0;entryDy=0;fontSize=13;fontStyle=1" edge="1" parent="oHoQWinwYWFs-Grs3lX1-1" source="FZcH5zqsUxlnSrDGplCy-17" target="FZcH5zqsUxlnSrDGplCy-1">
          <mxGeometry relative="1" as="geometry">
            <mxPoint x="660" y="418" as="targetPoint" />
            <Array as="points">
              <mxPoint x="604" y="418" />
              <mxPoint x="604" y="266" />
            </Array>
          </mxGeometry>
        </mxCell>
        <mxCell id="FZcH5zqsUxlnSrDGplCy-20" value="No" style="edgeLabel;html=1;align=center;verticalAlign=middle;resizable=0;points=[];rounded=1;fontSize=13;fontStyle=1" vertex="1" connectable="0" parent="FZcH5zqsUxlnSrDGplCy-19">
          <mxGeometry x="-0.1907" y="1" relative="1" as="geometry">
            <mxPoint y="-33" as="offset" />
          </mxGeometry>
        </mxCell>
        <mxCell id="FZcH5zqsUxlnSrDGplCy-22" value="" style="edgeStyle=orthogonalEdgeStyle;rounded=1;orthogonalLoop=1;jettySize=auto;html=1;fontSize=13;fontStyle=1" edge="1" parent="oHoQWinwYWFs-Grs3lX1-1" source="FZcH5zqsUxlnSrDGplCy-17">
          <mxGeometry relative="1" as="geometry">
            <mxPoint x="524" y="518" as="targetPoint" />
          </mxGeometry>
        </mxCell>
        <mxCell id="FZcH5zqsUxlnSrDGplCy-23" value="Yes" style="edgeLabel;html=1;align=center;verticalAlign=middle;resizable=0;points=[];rounded=1;fontSize=13;fontStyle=1" vertex="1" connectable="0" parent="FZcH5zqsUxlnSrDGplCy-22">
          <mxGeometry x="-0.2754" y="1" relative="1" as="geometry">
            <mxPoint as="offset" />
          </mxGeometry>
        </mxCell>
        <mxCell id="FZcH5zqsUxlnSrDGplCy-17" value="Do you want to submit?" style="rhombus;whiteSpace=wrap;html=1;rounded=1;fontSize=13;fontStyle=1" vertex="1" parent="oHoQWinwYWFs-Grs3lX1-1">
          <mxGeometry x="466" y="376" width="116" height="84" as="geometry" />
        </mxCell>
        <mxCell id="FZcH5zqsUxlnSrDGplCy-26" value="registration page" style="whiteSpace=wrap;html=1;strokeWidth=2;rounded=1;labelBackgroundColor=none;fontSize=13;fontStyle=1" vertex="1" parent="oHoQWinwYWFs-Grs3lX1-1">
          <mxGeometry y="238" width="120" height="60" as="geometry" />
        </mxCell>
        <mxCell id="FZcH5zqsUxlnSrDGplCy-27" value="" style="edgeStyle=orthogonalEdgeStyle;rounded=1;orthogonalLoop=1;jettySize=auto;html=1;fontSize=13;fontStyle=1" edge="1" parent="oHoQWinwYWFs-Grs3lX1-1" source="X4v2Hm8I28YGBb-Wsmpa-4" target="FZcH5zqsUxlnSrDGplCy-26">
          <mxGeometry relative="1" as="geometry">
            <Array as="points">
              <mxPoint x="60" y="168" />
            </Array>
          </mxGeometry>
        </mxCell>
        <mxCell id="FZcH5zqsUxlnSrDGplCy-28" value="choose from navigator bar" style="edgeLabel;html=1;align=center;verticalAlign=middle;resizable=0;points=[];rounded=1;fontSize=13;fontStyle=1" vertex="1" connectable="0" parent="FZcH5zqsUxlnSrDGplCy-27">
          <mxGeometry x="0.0306" y="-2" relative="1" as="geometry">
            <mxPoint x="15" as="offset" />
          </mxGeometry>
        </mxCell>
        <mxCell id="FZcH5zqsUxlnSrDGplCy-40" value="sign up bottom" style="edgeLabel;html=1;align=center;verticalAlign=middle;resizable=0;points=[];rounded=1;fontSize=13;fontStyle=1" vertex="1" connectable="0" parent="FZcH5zqsUxlnSrDGplCy-27">
          <mxGeometry x="0.7535" y="1" relative="1" as="geometry">
            <mxPoint y="22" as="offset" />
          </mxGeometry>
        </mxCell>
        <mxCell id="FZcH5zqsUxlnSrDGplCy-29" value="log in page" style="whiteSpace=wrap;html=1;strokeWidth=2;rounded=1;labelBackgroundColor=none;fontSize=13;fontStyle=1" vertex="1" parent="oHoQWinwYWFs-Grs3lX1-1">
          <mxGeometry x="188" y="238" width="120" height="60" as="geometry" />
        </mxCell>
        <mxCell id="FZcH5zqsUxlnSrDGplCy-42" style="edgeStyle=orthogonalEdgeStyle;rounded=1;orthogonalLoop=1;jettySize=auto;html=1;fontSize=13;fontStyle=1" edge="1" parent="oHoQWinwYWFs-Grs3lX1-1" source="FZcH5zqsUxlnSrDGplCy-33">
          <mxGeometry relative="1" as="geometry">
            <mxPoint x="56" y="308" as="targetPoint" />
          </mxGeometry>
        </mxCell>
        <mxCell id="FZcH5zqsUxlnSrDGplCy-43" value="Yes" style="edgeLabel;html=1;align=center;verticalAlign=middle;resizable=0;points=[];rounded=1;fontSize=13;fontStyle=1" vertex="1" connectable="0" parent="FZcH5zqsUxlnSrDGplCy-42">
          <mxGeometry x="-0.136" relative="1" as="geometry">
            <mxPoint as="offset" />
          </mxGeometry>
        </mxCell>
        <mxCell id="FZcH5zqsUxlnSrDGplCy-33" value="Do you a new user？" style="strokeWidth=2;html=1;shape=mxgraph.flowchart.decision;whiteSpace=wrap;rounded=1;fontSize=13;fontStyle=1" vertex="1" parent="oHoQWinwYWFs-Grs3lX1-1">
          <mxGeometry x="198" y="362" width="100" height="100" as="geometry" />
        </mxCell>
        <mxCell id="FZcH5zqsUxlnSrDGplCy-41" value="" style="edgeStyle=orthogonalEdgeStyle;rounded=1;orthogonalLoop=1;jettySize=auto;html=1;fontSize=13;fontStyle=1" edge="1" parent="oHoQWinwYWFs-Grs3lX1-1" source="FZcH5zqsUxlnSrDGplCy-29" target="FZcH5zqsUxlnSrDGplCy-33">
          <mxGeometry relative="1" as="geometry" />
        </mxCell>
        <mxCell id="FZcH5zqsUxlnSrDGplCy-55" value="" style="edgeStyle=orthogonalEdgeStyle;rounded=1;orthogonalLoop=1;jettySize=auto;html=1;entryX=0;entryY=0.75;entryDx=0;entryDy=0;fontSize=13;fontStyle=1" edge="1" parent="oHoQWinwYWFs-Grs3lX1-1" source="FZcH5zqsUxlnSrDGplCy-44" target="X4v2Hm8I28YGBb-Wsmpa-4">
          <mxGeometry relative="1" as="geometry">
            <mxPoint x="248" y="658" as="targetPoint" />
          </mxGeometry>
        </mxCell>
        <mxCell id="FZcH5zqsUxlnSrDGplCy-56" value="Login successfully" style="edgeLabel;html=1;align=center;verticalAlign=middle;resizable=0;points=[];rounded=1;fontSize=13;fontStyle=1" vertex="1" connectable="0" parent="FZcH5zqsUxlnSrDGplCy-55">
          <mxGeometry x="-0.058" y="-2" relative="1" as="geometry">
            <mxPoint as="offset" />
          </mxGeometry>
        </mxCell>
        <mxCell id="FZcH5zqsUxlnSrDGplCy-44" value="Log in" style="whiteSpace=wrap;html=1;strokeWidth=2;rounded=1;fontSize=13;fontStyle=1" vertex="1" parent="oHoQWinwYWFs-Grs3lX1-1">
          <mxGeometry x="188" y="518" width="120" height="60" as="geometry" />
        </mxCell>
        <mxCell id="FZcH5zqsUxlnSrDGplCy-45" value="" style="edgeStyle=orthogonalEdgeStyle;rounded=1;orthogonalLoop=1;jettySize=auto;html=1;fontSize=13;fontStyle=1" edge="1" parent="oHoQWinwYWFs-Grs3lX1-1" source="FZcH5zqsUxlnSrDGplCy-33" target="FZcH5zqsUxlnSrDGplCy-44">
          <mxGeometry relative="1" as="geometry" />
        </mxCell>
        <mxCell id="FZcH5zqsUxlnSrDGplCy-46" value="No" style="edgeLabel;html=1;align=center;verticalAlign=middle;resizable=0;points=[];rounded=1;fontSize=13;fontStyle=1" vertex="1" connectable="0" parent="FZcH5zqsUxlnSrDGplCy-45">
          <mxGeometry x="-0.1855" relative="1" as="geometry">
            <mxPoint as="offset" />
          </mxGeometry>
        </mxCell>
        <mxCell id="FZcH5zqsUxlnSrDGplCy-49" value="" style="endArrow=classic;html=1;rounded=1;entryX=0.5;entryY=0;entryDx=0;entryDy=0;fontSize=13;fontStyle=1" edge="1" parent="oHoQWinwYWFs-Grs3lX1-1" target="FZcH5zqsUxlnSrDGplCy-29">
          <mxGeometry width="50" height="50" relative="1" as="geometry">
            <mxPoint x="248" y="173" as="sourcePoint" />
            <mxPoint x="248" y="229" as="targetPoint" />
          </mxGeometry>
        </mxCell>
        <mxCell id="FZcH5zqsUxlnSrDGplCy-53" value="&lt;span style=&quot;color: rgb(0, 0, 0); font-family: Helvetica; font-size: 13px; font-style: normal; font-variant-ligatures: normal; font-variant-caps: normal; letter-spacing: normal; orphans: 2; text-align: center; text-indent: 0px; text-transform: none; widows: 2; word-spacing: 0px; -webkit-text-stroke-width: 0px; background-color: rgb(255, 255, 255); text-decoration-thickness: initial; text-decoration-style: initial; text-decoration-color: initial; float: none; display: inline !important;&quot;&gt;Log in bottom&lt;/span&gt;" style="text;whiteSpace=wrap;html=1;rounded=1;fontSize=13;fontStyle=1" vertex="1" parent="oHoQWinwYWFs-Grs3lX1-1">
          <mxGeometry x="214" y="187" width="84" height="28" as="geometry" />
        </mxCell>
        <mxCell id="FZcH5zqsUxlnSrDGplCy-87" style="edgeStyle=orthogonalEdgeStyle;rounded=1;orthogonalLoop=1;jettySize=auto;html=1;entryX=1;entryY=0.75;entryDx=0;entryDy=0;fontSize=13;fontStyle=1" edge="1" parent="oHoQWinwYWFs-Grs3lX1-1" source="FZcH5zqsUxlnSrDGplCy-57" target="X4v2Hm8I28YGBb-Wsmpa-4">
          <mxGeometry relative="1" as="geometry">
            <Array as="points">
              <mxPoint x="627" y="252" />
              <mxPoint x="627" y="183" />
            </Array>
          </mxGeometry>
        </mxCell>
        <mxCell id="FZcH5zqsUxlnSrDGplCy-88" value="you want&lt;br style=&quot;font-size: 13px;&quot;&gt;to continue&lt;br style=&quot;font-size: 13px;&quot;&gt;order food" style="edgeLabel;html=1;align=center;verticalAlign=middle;resizable=0;points=[];rounded=1;fontSize=13;fontStyle=1" vertex="1" connectable="0" parent="FZcH5zqsUxlnSrDGplCy-87">
          <mxGeometry x="0.1978" y="1" relative="1" as="geometry">
            <mxPoint y="15" as="offset" />
          </mxGeometry>
        </mxCell>
        <mxCell id="FZcH5zqsUxlnSrDGplCy-57" value="Shopping cart" style="whiteSpace=wrap;html=1;strokeWidth=2;rounded=1;labelBackgroundColor=none;fontSize=13;fontStyle=1" vertex="1" parent="oHoQWinwYWFs-Grs3lX1-1">
          <mxGeometry x="672" y="236" width="120" height="60" as="geometry" />
        </mxCell>
        <mxCell id="FZcH5zqsUxlnSrDGplCy-58" value="" style="edgeStyle=orthogonalEdgeStyle;rounded=1;orthogonalLoop=1;jettySize=auto;html=1;fontSize=13;fontStyle=1" edge="1" parent="oHoQWinwYWFs-Grs3lX1-1" source="X4v2Hm8I28YGBb-Wsmpa-4" target="FZcH5zqsUxlnSrDGplCy-57">
          <mxGeometry relative="1" as="geometry" />
        </mxCell>
        <mxCell id="FZcH5zqsUxlnSrDGplCy-61" value="My order" style="whiteSpace=wrap;html=1;strokeWidth=2;rounded=1;labelBackgroundColor=none;fontSize=13;fontStyle=1" vertex="1" parent="oHoQWinwYWFs-Grs3lX1-1">
          <mxGeometry x="924.5" y="236" width="120" height="60" as="geometry" />
        </mxCell>
        <mxCell id="FZcH5zqsUxlnSrDGplCy-63" style="edgeStyle=orthogonalEdgeStyle;rounded=1;orthogonalLoop=1;jettySize=auto;html=1;entryX=0;entryY=0.5;entryDx=0;entryDy=0;fontSize=13;fontStyle=1" edge="1" parent="oHoQWinwYWFs-Grs3lX1-1" source="FZcH5zqsUxlnSrDGplCy-62" target="FZcH5zqsUxlnSrDGplCy-57">
          <mxGeometry relative="1" as="geometry" />
        </mxCell>
        <mxCell id="FZcH5zqsUxlnSrDGplCy-64" value="Yes" style="edgeLabel;html=1;align=center;verticalAlign=middle;resizable=0;points=[];rounded=1;fontSize=13;fontStyle=1" vertex="1" connectable="0" parent="FZcH5zqsUxlnSrDGplCy-63">
          <mxGeometry x="0.0967" y="-2" relative="1" as="geometry">
            <mxPoint x="-3" y="85" as="offset" />
          </mxGeometry>
        </mxCell>
        <mxCell id="FZcH5zqsUxlnSrDGplCy-66" style="edgeStyle=orthogonalEdgeStyle;rounded=1;orthogonalLoop=1;jettySize=auto;html=1;fontSize=13;fontStyle=1" edge="1" parent="oHoQWinwYWFs-Grs3lX1-1">
          <mxGeometry relative="1" as="geometry">
            <mxPoint x="443.5" y="567" as="sourcePoint" />
            <mxPoint x="308" y="268" as="targetPoint" />
            <Array as="points">
              <mxPoint x="441" y="567" />
              <mxPoint x="441" y="268" />
            </Array>
          </mxGeometry>
        </mxCell>
        <mxCell id="FZcH5zqsUxlnSrDGplCy-67" value="No" style="edgeLabel;html=1;align=center;verticalAlign=middle;resizable=0;points=[];rounded=1;fontSize=13;fontStyle=1" vertex="1" connectable="0" parent="FZcH5zqsUxlnSrDGplCy-66">
          <mxGeometry x="-0.1071" y="-2" relative="1" as="geometry">
            <mxPoint y="113" as="offset" />
          </mxGeometry>
        </mxCell>
        <mxCell id="FZcH5zqsUxlnSrDGplCy-62" value="&amp;nbsp; &amp;nbsp;Do you log in?&lt;br style=&quot;font-size: 13px;&quot;&gt;(check by the system)" style="strokeWidth=2;html=1;shape=mxgraph.flowchart.decision;whiteSpace=wrap;rounded=1;fontSize=13;fontStyle=1" vertex="1" parent="oHoQWinwYWFs-Grs3lX1-1">
          <mxGeometry x="450.5" y="518" width="167.5" height="142" as="geometry" />
        </mxCell>
        <mxCell id="FZcH5zqsUxlnSrDGplCy-70" value="" style="endArrow=classic;startArrow=classic;html=1;rounded=1;entryX=0.75;entryY=1;entryDx=0;entryDy=0;exitX=1;exitY=0.5;exitDx=0;exitDy=0;fontSize=13;fontStyle=1" edge="1" parent="oHoQWinwYWFs-Grs3lX1-1" target="FZcH5zqsUxlnSrDGplCy-57">
          <mxGeometry width="50" height="50" relative="1" as="geometry">
            <mxPoint x="792" y="266" as="sourcePoint" />
            <mxPoint x="732" y="296" as="targetPoint" />
            <Array as="points">
              <mxPoint x="826" y="266" />
              <mxPoint x="826" y="322" />
              <mxPoint x="784" y="322" />
              <mxPoint x="762" y="322" />
            </Array>
          </mxGeometry>
        </mxCell>
        <mxCell id="FZcH5zqsUxlnSrDGplCy-71" value="Check&amp;nbsp;&lt;br style=&quot;font-size: 13px;&quot;&gt;order" style="edgeLabel;html=1;align=center;verticalAlign=middle;resizable=0;points=[];rounded=1;fontSize=13;fontStyle=1" vertex="1" connectable="0" parent="FZcH5zqsUxlnSrDGplCy-70">
          <mxGeometry x="-0.3065" y="1" relative="1" as="geometry">
            <mxPoint x="-1" as="offset" />
          </mxGeometry>
        </mxCell>
        <mxCell id="FZcH5zqsUxlnSrDGplCy-72" value="generate a order" style="whiteSpace=wrap;html=1;strokeWidth=2;rounded=1;labelBackgroundColor=none;fontSize=13;fontStyle=1" vertex="1" parent="oHoQWinwYWFs-Grs3lX1-1">
          <mxGeometry x="672" y="376" width="120" height="60" as="geometry" />
        </mxCell>
        <mxCell id="FZcH5zqsUxlnSrDGplCy-73" value="" style="edgeStyle=orthogonalEdgeStyle;rounded=1;orthogonalLoop=1;jettySize=auto;html=1;fontSize=13;fontStyle=1" edge="1" parent="oHoQWinwYWFs-Grs3lX1-1" source="FZcH5zqsUxlnSrDGplCy-57" target="FZcH5zqsUxlnSrDGplCy-72">
          <mxGeometry relative="1" as="geometry" />
        </mxCell>
        <mxCell id="FZcH5zqsUxlnSrDGplCy-77" value="submit" style="edgeLabel;html=1;align=center;verticalAlign=middle;resizable=0;points=[];rounded=1;fontSize=13;fontStyle=1" vertex="1" connectable="0" parent="FZcH5zqsUxlnSrDGplCy-73">
          <mxGeometry x="-0.2787" y="-2" relative="1" as="geometry">
            <mxPoint as="offset" />
          </mxGeometry>
        </mxCell>
        <mxCell id="FZcH5zqsUxlnSrDGplCy-74" value="end" style="strokeWidth=2;html=1;shape=mxgraph.flowchart.terminator;whiteSpace=wrap;rounded=1;fontSize=13;fontStyle=1" vertex="1" parent="oHoQWinwYWFs-Grs3lX1-1">
          <mxGeometry x="682" y="504" width="100" height="60" as="geometry" />
        </mxCell>
        <mxCell id="FZcH5zqsUxlnSrDGplCy-75" value="" style="edgeStyle=orthogonalEdgeStyle;rounded=1;orthogonalLoop=1;jettySize=auto;html=1;fontSize=13;fontStyle=1" edge="1" parent="oHoQWinwYWFs-Grs3lX1-1" source="FZcH5zqsUxlnSrDGplCy-72" target="FZcH5zqsUxlnSrDGplCy-74">
          <mxGeometry relative="1" as="geometry" />
        </mxCell>
        <mxCell id="FZcH5zqsUxlnSrDGplCy-76" value="pay bill" style="edgeLabel;html=1;align=center;verticalAlign=middle;resizable=0;points=[];rounded=1;fontSize=13;fontStyle=1" vertex="1" connectable="0" parent="FZcH5zqsUxlnSrDGplCy-75">
          <mxGeometry x="-0.2711" y="-2" relative="1" as="geometry">
            <mxPoint as="offset" />
          </mxGeometry>
        </mxCell>
        <mxCell id="FZcH5zqsUxlnSrDGplCy-78" value="" style="verticalLabelPosition=bottom;verticalAlign=top;html=1;shape=mxgraph.flowchart.parallel_mode;pointerEvents=1;rounded=1;fontSize=13;fontStyle=1" vertex="1" parent="oHoQWinwYWFs-Grs3lX1-1">
          <mxGeometry x="844.5" y="406" width="280" height="40" as="geometry" />
        </mxCell>
        <mxCell id="FZcH5zqsUxlnSrDGplCy-79" value="" style="edgeStyle=orthogonalEdgeStyle;rounded=1;orthogonalLoop=1;jettySize=auto;html=1;fontSize=13;fontStyle=1" edge="1" parent="oHoQWinwYWFs-Grs3lX1-1" source="FZcH5zqsUxlnSrDGplCy-61" target="FZcH5zqsUxlnSrDGplCy-78">
          <mxGeometry relative="1" as="geometry" />
        </mxCell>
        <mxCell id="FZcH5zqsUxlnSrDGplCy-80" value="check oder &lt;br style=&quot;font-size: 13px;&quot;&gt;by default" style="edgeLabel;html=1;align=center;verticalAlign=middle;resizable=0;points=[];rounded=1;fontSize=13;fontStyle=1" vertex="1" connectable="0" parent="FZcH5zqsUxlnSrDGplCy-79">
          <mxGeometry x="0.2379" relative="1" as="geometry">
            <mxPoint y="10" as="offset" />
          </mxGeometry>
        </mxCell>
        <mxCell id="FZcH5zqsUxlnSrDGplCy-81" style="edgeStyle=orthogonalEdgeStyle;rounded=1;orthogonalLoop=1;jettySize=auto;html=1;entryX=0.123;entryY=-0.076;entryDx=0;entryDy=0;entryPerimeter=0;fontSize=13;fontStyle=1" edge="1" parent="oHoQWinwYWFs-Grs3lX1-1" source="FZcH5zqsUxlnSrDGplCy-61" target="FZcH5zqsUxlnSrDGplCy-78">
          <mxGeometry relative="1" as="geometry" />
        </mxCell>
        <mxCell id="FZcH5zqsUxlnSrDGplCy-84" value="search by dates&amp;nbsp;&lt;br style=&quot;font-size: 13px;&quot;&gt;of sale" style="edgeLabel;html=1;align=center;verticalAlign=middle;resizable=0;points=[];rounded=1;fontSize=13;fontStyle=1" vertex="1" connectable="0" parent="FZcH5zqsUxlnSrDGplCy-81">
          <mxGeometry x="0.6535" y="-2" relative="1" as="geometry">
            <mxPoint y="7" as="offset" />
          </mxGeometry>
        </mxCell>
        <mxCell id="FZcH5zqsUxlnSrDGplCy-82" style="edgeStyle=orthogonalEdgeStyle;rounded=1;orthogonalLoop=1;jettySize=auto;html=1;entryX=0.936;entryY=-0.076;entryDx=0;entryDy=0;entryPerimeter=0;fontSize=13;fontStyle=1" edge="1" parent="oHoQWinwYWFs-Grs3lX1-1" source="FZcH5zqsUxlnSrDGplCy-61" target="FZcH5zqsUxlnSrDGplCy-78">
          <mxGeometry relative="1" as="geometry" />
        </mxCell>
        <mxCell id="FZcH5zqsUxlnSrDGplCy-83" value="Search by &lt;br style=&quot;font-size: 13px;&quot;&gt;name of the pizza" style="edgeLabel;html=1;align=center;verticalAlign=middle;resizable=0;points=[];rounded=1;fontSize=13;fontStyle=1" vertex="1" connectable="0" parent="FZcH5zqsUxlnSrDGplCy-82">
          <mxGeometry x="0.7168" y="-1" relative="1" as="geometry">
            <mxPoint x="4" as="offset" />
          </mxGeometry>
        </mxCell>
        <mxCell id="FZcH5zqsUxlnSrDGplCy-85" value="List of order query result information" style="whiteSpace=wrap;html=1;verticalAlign=top;rounded=1;fontSize=13;fontStyle=1" vertex="1" parent="oHoQWinwYWFs-Grs3lX1-1">
          <mxGeometry x="924.5" y="506" width="120" height="44" as="geometry" />
        </mxCell>
        <mxCell id="FZcH5zqsUxlnSrDGplCy-86" value="" style="edgeStyle=orthogonalEdgeStyle;rounded=1;orthogonalLoop=1;jettySize=auto;html=1;fontSize=13;fontStyle=1" edge="1" parent="oHoQWinwYWFs-Grs3lX1-1" source="FZcH5zqsUxlnSrDGplCy-78" target="FZcH5zqsUxlnSrDGplCy-85">
          <mxGeometry relative="1" as="geometry" />
        </mxCell>
        <mxCell id="FZcH5zqsUxlnSrDGplCy-90" value="Log out" style="whiteSpace=wrap;html=1;strokeWidth=2;rounded=1;labelBackgroundColor=none;fontSize=13;fontStyle=1" vertex="1" parent="oHoQWinwYWFs-Grs3lX1-1">
          <mxGeometry x="1158" y="236" width="120" height="60" as="geometry" />
        </mxCell>
        <mxCell id="p2-AreiNcDw5725b48cl-1" style="edgeStyle=orthogonalEdgeStyle;rounded=1;orthogonalLoop=1;jettySize=auto;html=1;entryX=0.5;entryY=0;entryDx=0;entryDy=0;fontSize=13;fontStyle=1" edge="1" parent="oHoQWinwYWFs-Grs3lX1-1" source="X4v2Hm8I28YGBb-Wsmpa-4" target="FZcH5zqsUxlnSrDGplCy-90">
          <mxGeometry relative="1" as="geometry" />
        </mxCell>
        <mxCell id="p2-AreiNcDw5725b48cl-3" value="choose from the navigator bar" style="edgeLabel;html=1;align=center;verticalAlign=middle;resizable=0;points=[];rounded=1;fontSize=13;fontStyle=1" vertex="1" connectable="0" parent="p2-AreiNcDw5725b48cl-1">
          <mxGeometry x="-0.0376" y="2" relative="1" as="geometry">
            <mxPoint as="offset" />
          </mxGeometry>
        </mxCell>
        <mxCell id="FZcH5zqsUxlnSrDGplCy-93" value="end" style="strokeWidth=2;html=1;shape=mxgraph.flowchart.terminator;whiteSpace=wrap;rounded=1;fontSize=13;fontStyle=1" vertex="1" parent="oHoQWinwYWFs-Grs3lX1-1">
          <mxGeometry x="1169" y="376" width="100" height="60" as="geometry" />
        </mxCell>
        <mxCell id="FZcH5zqsUxlnSrDGplCy-94" style="edgeStyle=orthogonalEdgeStyle;rounded=1;orthogonalLoop=1;jettySize=auto;html=1;entryX=0.5;entryY=0;entryDx=0;entryDy=0;entryPerimeter=0;fontSize=13;fontStyle=1" edge="1" parent="oHoQWinwYWFs-Grs3lX1-1" source="FZcH5zqsUxlnSrDGplCy-90" target="FZcH5zqsUxlnSrDGplCy-93">
          <mxGeometry relative="1" as="geometry" />
        </mxCell>
      </root>
    </mxGraphModel>
  </diagram>
  <diagram id="7oOFypd3ZCqrHC5oc61H" name="admin">
    <mxGraphModel dx="4200" dy="3277" grid="0" gridSize="14" guides="1" tooltips="1" connect="1" arrows="1" fold="1" page="0" pageScale="1" pageWidth="827" pageHeight="1169" math="0" shadow="0">
      <root>
        <mxCell id="0" />
        <mxCell id="1" parent="0" />
        <mxCell id="44zBi0KZz6Z4PLNpd_jy-1" value="" style="group;fontSize=18;" vertex="1" connectable="0" parent="1">
          <mxGeometry x="-956" y="-1346" width="1750" height="2196" as="geometry" />
        </mxCell>
        <mxCell id="LIqQr2ay6HJPPpyq8Ubm-2" value="Start as a manager" style="strokeWidth=2;html=1;shape=mxgraph.flowchart.start_2;whiteSpace=wrap;rounded=1;fontSize=18;fontStyle=1" vertex="1" parent="44zBi0KZz6Z4PLNpd_jy-1">
          <mxGeometry x="919.0928756338877" width="124.11787652044399" height="134.72392638036808" as="geometry" />
        </mxCell>
        <mxCell id="LIqQr2ay6HJPPpyq8Ubm-7" value="are you a new manager?" style="rhombus;whiteSpace=wrap;html=1;strokeWidth=2;rounded=1;fontSize=18;fontStyle=1" vertex="1" parent="44zBi0KZz6Z4PLNpd_jy-1">
          <mxGeometry x="897.37224724281" y="179.18282208588954" width="170.04149083300828" height="140.1128834355828" as="geometry" />
        </mxCell>
        <mxCell id="LIqQr2ay6HJPPpyq8Ubm-1" value="" style="edgeStyle=orthogonalEdgeStyle;rounded=1;orthogonalLoop=1;jettySize=auto;html=1;fontSize=18;fontStyle=1" edge="1" parent="44zBi0KZz6Z4PLNpd_jy-1" source="LIqQr2ay6HJPPpyq8Ubm-2" target="LIqQr2ay6HJPPpyq8Ubm-7">
          <mxGeometry relative="1" as="geometry" />
        </mxCell>
        <mxCell id="LIqQr2ay6HJPPpyq8Ubm-9" value="registration page" style="whiteSpace=wrap;html=1;strokeWidth=2;rounded=1;fontSize=18;fontStyle=1" vertex="1" parent="44zBi0KZz6Z4PLNpd_jy-1">
          <mxGeometry x="1185.33" y="214.88" width="171.67" height="74.12" as="geometry" />
        </mxCell>
        <mxCell id="LIqQr2ay6HJPPpyq8Ubm-3" value="" style="edgeStyle=orthogonalEdgeStyle;rounded=1;orthogonalLoop=1;jettySize=auto;html=1;fontSize=18;fontStyle=1" edge="1" parent="44zBi0KZz6Z4PLNpd_jy-1" source="LIqQr2ay6HJPPpyq8Ubm-7" target="LIqQr2ay6HJPPpyq8Ubm-9">
          <mxGeometry relative="1" as="geometry">
            <Array as="points">
              <mxPoint x="1064.9313805454094" y="255.97546012269936" />
              <mxPoint x="1064.9313805454094" y="255.97546012269936" />
            </Array>
          </mxGeometry>
        </mxCell>
        <mxCell id="LIqQr2ay6HJPPpyq8Ubm-4" value="Yes" style="edgeLabel;html=1;align=center;verticalAlign=middle;resizable=0;points=[];rounded=1;fontSize=18;fontStyle=1" vertex="1" connectable="0" parent="LIqQr2ay6HJPPpyq8Ubm-3">
          <mxGeometry x="-0.2898" relative="1" as="geometry">
            <mxPoint x="12" as="offset" />
          </mxGeometry>
        </mxCell>
        <mxCell id="LIqQr2ay6HJPPpyq8Ubm-12" value="Log in page" style="rounded=1;whiteSpace=wrap;html=1;strokeWidth=2;fontSize=18;fontStyle=1" vertex="1" parent="44zBi0KZz6Z4PLNpd_jy-1">
          <mxGeometry x="908.5428561296499" y="400.1300613496932" width="148.94145182453278" height="80.83435582822085" as="geometry" />
        </mxCell>
        <mxCell id="LIqQr2ay6HJPPpyq8Ubm-5" value="" style="edgeStyle=orthogonalEdgeStyle;rounded=1;orthogonalLoop=1;jettySize=auto;html=1;fontSize=18;fontStyle=1" edge="1" parent="44zBi0KZz6Z4PLNpd_jy-1" source="LIqQr2ay6HJPPpyq8Ubm-7" target="LIqQr2ay6HJPPpyq8Ubm-12">
          <mxGeometry relative="1" as="geometry" />
        </mxCell>
        <mxCell id="LIqQr2ay6HJPPpyq8Ubm-6" value="No" style="edgeLabel;html=1;align=center;verticalAlign=middle;resizable=0;points=[];rounded=1;fontSize=18;fontStyle=1" vertex="1" connectable="0" parent="LIqQr2ay6HJPPpyq8Ubm-5">
          <mxGeometry x="-0.1846" y="-1" relative="1" as="geometry">
            <mxPoint as="offset" />
          </mxGeometry>
        </mxCell>
        <mxCell id="LIqQr2ay6HJPPpyq8Ubm-13" value="" style="edgeStyle=orthogonalEdgeStyle;rounded=1;orthogonalLoop=1;jettySize=auto;html=1;fontSize=18;fontStyle=1" edge="1" parent="44zBi0KZz6Z4PLNpd_jy-1" source="LIqQr2ay6HJPPpyq8Ubm-15" target="LIqQr2ay6HJPPpyq8Ubm-12">
          <mxGeometry relative="1" as="geometry" />
        </mxCell>
        <mxCell id="LIqQr2ay6HJPPpyq8Ubm-14" value="registration &lt;br style=&quot;font-size: 18px;&quot;&gt;successfully" style="edgeLabel;html=1;align=center;verticalAlign=middle;resizable=0;points=[];rounded=1;fontSize=18;fontStyle=1" vertex="1" connectable="0" parent="LIqQr2ay6HJPPpyq8Ubm-13">
          <mxGeometry x="-0.1581" y="-1" relative="1" as="geometry">
            <mxPoint as="offset" />
          </mxGeometry>
        </mxCell>
        <mxCell id="LIqQr2ay6HJPPpyq8Ubm-15" value="registration" style="rounded=1;whiteSpace=wrap;html=1;fontSize=18;fontStyle=1" vertex="1" parent="44zBi0KZz6Z4PLNpd_jy-1">
          <mxGeometry x="1198.99572077024" y="394.0028220858896" width="148.94145182453278" height="80.83435582822085" as="geometry" />
        </mxCell>
        <mxCell id="LIqQr2ay6HJPPpyq8Ubm-8" value="" style="edgeStyle=orthogonalEdgeStyle;rounded=1;orthogonalLoop=1;jettySize=auto;html=1;fontSize=18;fontStyle=1" edge="1" parent="44zBi0KZz6Z4PLNpd_jy-1" source="LIqQr2ay6HJPPpyq8Ubm-9" target="LIqQr2ay6HJPPpyq8Ubm-15">
          <mxGeometry relative="1" as="geometry" />
        </mxCell>
        <mxCell id="LIqQr2ay6HJPPpyq8Ubm-23" value="Administor main page" style="whiteSpace=wrap;html=1;rounded=1;strokeWidth=2;fontSize=18;fontStyle=1" vertex="1" parent="44zBi0KZz6Z4PLNpd_jy-1">
          <mxGeometry x="908.5428561296499" y="568.5349693251534" width="148.94145182453278" height="80.83435582822085" as="geometry" />
        </mxCell>
        <mxCell id="LIqQr2ay6HJPPpyq8Ubm-10" value="" style="edgeStyle=orthogonalEdgeStyle;rounded=1;orthogonalLoop=1;jettySize=auto;html=1;fontSize=18;fontStyle=1" edge="1" parent="44zBi0KZz6Z4PLNpd_jy-1" source="LIqQr2ay6HJPPpyq8Ubm-12" target="LIqQr2ay6HJPPpyq8Ubm-23">
          <mxGeometry relative="1" as="geometry" />
        </mxCell>
        <mxCell id="LIqQr2ay6HJPPpyq8Ubm-11" value="Log in&lt;br style=&quot;font-size: 18px;&quot;&gt;successfully" style="edgeLabel;html=1;align=center;verticalAlign=middle;resizable=0;points=[];rounded=1;fontSize=18;fontStyle=1" vertex="1" connectable="0" parent="LIqQr2ay6HJPPpyq8Ubm-10">
          <mxGeometry x="-0.2631" y="-3" relative="1" as="geometry">
            <mxPoint y="2" as="offset" />
          </mxGeometry>
        </mxCell>
        <mxCell id="LIqQr2ay6HJPPpyq8Ubm-30" value="Add new pizza" style="whiteSpace=wrap;html=1;rounded=1;strokeWidth=2;fontSize=18;fontStyle=1" vertex="1" parent="44zBi0KZz6Z4PLNpd_jy-1">
          <mxGeometry x="909.7219759565942" y="868.9693251533741" width="148.94145182453278" height="80.83435582822085" as="geometry" />
        </mxCell>
        <mxCell id="LIqQr2ay6HJPPpyq8Ubm-31" style="edgeStyle=orthogonalEdgeStyle;rounded=1;orthogonalLoop=1;jettySize=auto;html=1;entryX=0.5;entryY=0;entryDx=0;entryDy=0;fontSize=18;fontStyle=1" edge="1" parent="44zBi0KZz6Z4PLNpd_jy-1" target="LIqQr2ay6HJPPpyq8Ubm-46">
          <mxGeometry relative="1" as="geometry">
            <mxPoint x="798.0158870881947" y="1073.7496932515337" as="sourcePoint" />
            <mxPoint x="1018.945707294585" y="1181.5288343558282" as="targetPoint" />
            <Array as="points">
              <mxPoint x="798.0158870881947" y="1133.0282208588956" />
              <mxPoint x="1018.945707294585" y="1133.0282208588956" />
            </Array>
          </mxGeometry>
        </mxCell>
        <mxCell id="LIqQr2ay6HJPPpyq8Ubm-32" value="input:Raw material" style="shape=parallelogram;html=1;strokeWidth=2;perimeter=parallelogramPerimeter;whiteSpace=wrap;rounded=1;arcSize=12;size=0.23;fontSize=18;fontStyle=1" vertex="1" parent="44zBi0KZz6Z4PLNpd_jy-1">
          <mxGeometry x="735.9569488279727" y="998.3042944785276" width="124.11787652044399" height="80.83435582822085" as="geometry" />
        </mxCell>
        <mxCell id="LIqQr2ay6HJPPpyq8Ubm-25" style="edgeStyle=orthogonalEdgeStyle;rounded=1;orthogonalLoop=1;jettySize=auto;html=1;entryX=0.597;entryY=-0.019;entryDx=0;entryDy=0;entryPerimeter=0;fontSize=18;fontStyle=1" edge="1" parent="44zBi0KZz6Z4PLNpd_jy-1" source="LIqQr2ay6HJPPpyq8Ubm-30" target="LIqQr2ay6HJPPpyq8Ubm-32">
          <mxGeometry relative="1" as="geometry" />
        </mxCell>
        <mxCell id="LIqQr2ay6HJPPpyq8Ubm-34" value="input:&lt;br style=&quot;font-size: 18px;&quot;&gt;Description" style="shape=parallelogram;html=1;strokeWidth=2;perimeter=parallelogramPerimeter;whiteSpace=wrap;rounded=1;arcSize=12;size=0.23;fontSize=18;fontStyle=1" vertex="1" parent="44zBi0KZz6Z4PLNpd_jy-1">
          <mxGeometry x="1004.0515621121317" y="995.6098159509203" width="124.11787652044399" height="80.83435582822085" as="geometry" />
        </mxCell>
        <mxCell id="LIqQr2ay6HJPPpyq8Ubm-27" style="edgeStyle=orthogonalEdgeStyle;rounded=1;orthogonalLoop=1;jettySize=auto;html=1;fontSize=18;fontStyle=1" edge="1" parent="44zBi0KZz6Z4PLNpd_jy-1" source="LIqQr2ay6HJPPpyq8Ubm-30" target="LIqQr2ay6HJPPpyq8Ubm-34">
          <mxGeometry relative="1" as="geometry">
            <Array as="points">
              <mxPoint x="1083.4870030852157" y="909.3865030674846" />
            </Array>
          </mxGeometry>
        </mxCell>
        <mxCell id="LIqQr2ay6HJPPpyq8Ubm-36" value="input: price" style="shape=parallelogram;html=1;strokeWidth=2;perimeter=parallelogramPerimeter;whiteSpace=wrap;rounded=1;arcSize=12;size=0.23;fontSize=18;fontStyle=1" vertex="1" parent="44zBi0KZz6Z4PLNpd_jy-1">
          <mxGeometry x="870.0042554700522" y="998.3042944785276" width="124.11787652044399" height="80.83435582822085" as="geometry" />
        </mxCell>
        <mxCell id="LIqQr2ay6HJPPpyq8Ubm-26" style="edgeStyle=orthogonalEdgeStyle;rounded=1;orthogonalLoop=1;jettySize=auto;html=1;entryX=0.602;entryY=-0.007;entryDx=0;entryDy=0;entryPerimeter=0;fontSize=18;fontStyle=1" edge="1" parent="44zBi0KZz6Z4PLNpd_jy-1" source="LIqQr2ay6HJPPpyq8Ubm-30" target="LIqQr2ay6HJPPpyq8Ubm-36">
          <mxGeometry relative="1" as="geometry">
            <Array as="points">
              <mxPoint x="944.4749813823186" y="963.2760736196318" />
              <mxPoint x="944.4749813823186" y="963.2760736196318" />
            </Array>
          </mxGeometry>
        </mxCell>
        <mxCell id="LIqQr2ay6HJPPpyq8Ubm-37" style="edgeStyle=orthogonalEdgeStyle;rounded=1;orthogonalLoop=1;jettySize=auto;html=1;fontSize=18;fontStyle=1" edge="1" parent="44zBi0KZz6Z4PLNpd_jy-1" target="LIqQr2ay6HJPPpyq8Ubm-46">
          <mxGeometry relative="1" as="geometry">
            <mxPoint x="1200.1578070144333" y="1069.7079754601227" as="sourcePoint" />
            <mxPoint x="1018.945707294585" y="1180.1815950920243" as="targetPoint" />
            <Array as="points">
              <mxPoint x="1200.1578070144333" y="1131.680981595092" />
              <mxPoint x="1018.945707294585" y="1131.680981595092" />
            </Array>
          </mxGeometry>
        </mxCell>
        <mxCell id="LIqQr2ay6HJPPpyq8Ubm-38" value="choose:&lt;br style=&quot;font-size: 18px;&quot;&gt;Category" style="shape=parallelogram;html=1;strokeWidth=2;perimeter=parallelogramPerimeter;whiteSpace=wrap;rounded=1;arcSize=12;size=0.23;fontSize=18;fontStyle=1" vertex="1" parent="44zBi0KZz6Z4PLNpd_jy-1">
          <mxGeometry x="1138.0988687542113" y="995.6098159509203" width="124.11787652044399" height="80.83435582822085" as="geometry" />
        </mxCell>
        <mxCell id="LIqQr2ay6HJPPpyq8Ubm-28" style="edgeStyle=orthogonalEdgeStyle;rounded=1;orthogonalLoop=1;jettySize=auto;html=1;entryX=0.606;entryY=0.003;entryDx=0;entryDy=0;entryPerimeter=0;fontSize=18;fontStyle=1" edge="1" parent="44zBi0KZz6Z4PLNpd_jy-1" source="LIqQr2ay6HJPPpyq8Ubm-30" target="LIqQr2ay6HJPPpyq8Ubm-38">
          <mxGeometry relative="1" as="geometry" />
        </mxCell>
        <mxCell id="LIqQr2ay6HJPPpyq8Ubm-39" style="edgeStyle=orthogonalEdgeStyle;rounded=1;orthogonalLoop=1;jettySize=auto;html=1;entryX=0.5;entryY=0;entryDx=0;entryDy=0;fontSize=18;fontStyle=1" edge="1" parent="44zBi0KZz6Z4PLNpd_jy-1" target="LIqQr2ay6HJPPpyq8Ubm-46">
          <mxGeometry relative="1" as="geometry">
            <mxPoint x="1334.2051136565126" y="1069.7079754601227" as="sourcePoint" />
            <mxPoint x="1018.945707294585" y="1178.8343558282209" as="targetPoint" />
            <Array as="points">
              <mxPoint x="1334.2051136565126" y="1131.680981595092" />
              <mxPoint x="1018.945707294585" y="1131.680981595092" />
            </Array>
          </mxGeometry>
        </mxCell>
        <mxCell id="LIqQr2ay6HJPPpyq8Ubm-40" value="input:&lt;br style=&quot;font-size: 18px;&quot;&gt;a picture" style="shape=parallelogram;html=1;strokeWidth=2;perimeter=parallelogramPerimeter;whiteSpace=wrap;rounded=1;arcSize=12;size=0.23;fontSize=18;fontStyle=1" vertex="1" parent="44zBi0KZz6Z4PLNpd_jy-1">
          <mxGeometry x="1272.1461753962906" y="995.6098159509203" width="124.11787652044399" height="80.83435582822085" as="geometry" />
        </mxCell>
        <mxCell id="LIqQr2ay6HJPPpyq8Ubm-29" style="edgeStyle=orthogonalEdgeStyle;rounded=1;orthogonalLoop=1;jettySize=auto;html=1;entryX=0.59;entryY=-0.009;entryDx=0;entryDy=0;entryPerimeter=0;fontSize=18;fontStyle=1" edge="1" parent="44zBi0KZz6Z4PLNpd_jy-1" source="LIqQr2ay6HJPPpyq8Ubm-30" target="LIqQr2ay6HJPPpyq8Ubm-40">
          <mxGeometry relative="1" as="geometry" />
        </mxCell>
        <mxCell id="LIqQr2ay6HJPPpyq8Ubm-41" style="edgeStyle=orthogonalEdgeStyle;rounded=1;orthogonalLoop=1;jettySize=auto;html=1;entryX=0.5;entryY=0;entryDx=0;entryDy=0;fontSize=18;fontStyle=1" edge="1" parent="44zBi0KZz6Z4PLNpd_jy-1" target="LIqQr2ay6HJPPpyq8Ubm-46">
          <mxGeometry relative="1" as="geometry">
            <mxPoint x="663.9685804461151" y="1072.4024539877298" as="sourcePoint" />
            <mxPoint x="1018.945707294585" y="1176.1398773006135" as="targetPoint" />
            <Array as="points">
              <mxPoint x="663.9685804461151" y="1131.680981595092" />
              <mxPoint x="1018.945707294585" y="1131.680981595092" />
            </Array>
          </mxGeometry>
        </mxCell>
        <mxCell id="LIqQr2ay6HJPPpyq8Ubm-42" value="input:&lt;br style=&quot;font-size: 18px;&quot;&gt;Pizza&lt;br style=&quot;border-color: var(--border-color); font-size: 18px;&quot;&gt;name" style="shape=parallelogram;html=1;strokeWidth=2;perimeter=parallelogramPerimeter;whiteSpace=wrap;rounded=1;arcSize=12;size=0.23;fontSize=18;fontStyle=1" vertex="1" parent="44zBi0KZz6Z4PLNpd_jy-1">
          <mxGeometry x="601.9096421858932" y="998.3042944785276" width="124.11787652044399" height="80.83435582822085" as="geometry" />
        </mxCell>
        <mxCell id="LIqQr2ay6HJPPpyq8Ubm-24" style="edgeStyle=orthogonalEdgeStyle;rounded=1;orthogonalLoop=1;jettySize=auto;html=1;entryX=0.578;entryY=-0.007;entryDx=0;entryDy=0;entryPerimeter=0;fontSize=18;fontStyle=1" edge="1" parent="44zBi0KZz6Z4PLNpd_jy-1" source="LIqQr2ay6HJPPpyq8Ubm-30" target="LIqQr2ay6HJPPpyq8Ubm-42">
          <mxGeometry relative="1" as="geometry" />
        </mxCell>
        <mxCell id="LIqQr2ay6HJPPpyq8Ubm-43" style="edgeStyle=orthogonalEdgeStyle;rounded=1;orthogonalLoop=1;jettySize=auto;html=1;entryX=0;entryY=0.25;entryDx=0;entryDy=0;exitX=0;exitY=0.5;exitDx=0;exitDy=0;fontSize=18;fontStyle=1" edge="1" parent="44zBi0KZz6Z4PLNpd_jy-1">
          <mxGeometry relative="1" as="geometry">
            <mxPoint x="908.4807971913898" y="883.7889570552147" as="targetPoint" />
            <mxPoint x="943.2338026171142" y="1336.4613496932516" as="sourcePoint" />
            <Array as="points">
              <mxPoint x="942.0546827901699" y="1340.5030674846626" />
              <mxPoint x="526.2597964466825" y="1340.5030674846626" />
              <mxPoint x="526.2597964466825" y="883.7889570552147" />
            </Array>
          </mxGeometry>
        </mxCell>
        <mxCell id="LIqQr2ay6HJPPpyq8Ubm-44" value="Continue Add &lt;br style=&quot;font-size: 18px;&quot;&gt;the new pizza" style="edgeLabel;html=1;align=center;verticalAlign=middle;resizable=0;points=[];rounded=1;fontSize=18;fontStyle=1" vertex="1" connectable="0" parent="LIqQr2ay6HJPPpyq8Ubm-43">
          <mxGeometry x="0.0571" y="-2" relative="1" as="geometry">
            <mxPoint x="-3" y="-67" as="offset" />
          </mxGeometry>
        </mxCell>
        <mxCell id="LIqQr2ay6HJPPpyq8Ubm-46" value="Click &quot;Add&quot; button" style="whiteSpace=wrap;html=1;strokeWidth=2;rounded=1;arcSize=12;fontSize=18;fontStyle=1" vertex="1" parent="44zBi0KZz6Z4PLNpd_jy-1">
          <mxGeometry x="944.4749813823186" y="1184.2233128834355" width="148.94145182453278" height="80.83435582822085" as="geometry" />
        </mxCell>
        <mxCell id="LIqQr2ay6HJPPpyq8Ubm-33" style="edgeStyle=orthogonalEdgeStyle;rounded=1;orthogonalLoop=1;jettySize=auto;html=1;entryX=0.5;entryY=0;entryDx=0;entryDy=0;fontSize=18;fontStyle=1" edge="1" parent="44zBi0KZz6Z4PLNpd_jy-1" source="LIqQr2ay6HJPPpyq8Ubm-34" target="LIqQr2ay6HJPPpyq8Ubm-46">
          <mxGeometry relative="1" as="geometry" />
        </mxCell>
        <mxCell id="LIqQr2ay6HJPPpyq8Ubm-35" value="" style="edgeStyle=orthogonalEdgeStyle;rounded=1;orthogonalLoop=1;jettySize=auto;html=1;entryX=0.5;entryY=0;entryDx=0;entryDy=0;fontSize=18;fontStyle=1" edge="1" parent="44zBi0KZz6Z4PLNpd_jy-1" source="LIqQr2ay6HJPPpyq8Ubm-36" target="LIqQr2ay6HJPPpyq8Ubm-46">
          <mxGeometry relative="1" as="geometry" />
        </mxCell>
        <mxCell id="LIqQr2ay6HJPPpyq8Ubm-47" style="edgeStyle=orthogonalEdgeStyle;rounded=1;orthogonalLoop=1;jettySize=auto;html=1;entryX=0.5;entryY=1;entryDx=0;entryDy=0;fontSize=18;fontStyle=1" edge="1" parent="44zBi0KZz6Z4PLNpd_jy-1" target="LIqQr2ay6HJPPpyq8Ubm-53">
          <mxGeometry relative="1" as="geometry">
            <mxPoint x="1069.834036667967" y="1344.5447852760733" as="sourcePoint" />
            <mxPoint x="1406.2555409766305" y="800.2601226993864" as="targetPoint" />
          </mxGeometry>
        </mxCell>
        <mxCell id="LIqQr2ay6HJPPpyq8Ubm-48" value="update information" style="edgeLabel;html=1;align=center;verticalAlign=middle;resizable=0;points=[];rounded=1;fontSize=18;fontStyle=1" vertex="1" connectable="0" parent="LIqQr2ay6HJPPpyq8Ubm-47">
          <mxGeometry x="-0.157" relative="1" as="geometry">
            <mxPoint x="61" y="-114" as="offset" />
          </mxGeometry>
        </mxCell>
        <mxCell id="LIqQr2ay6HJPPpyq8Ubm-49" value="Add successfully" style="whiteSpace=wrap;html=1;strokeWidth=2;rounded=1;arcSize=12;fontSize=18;fontStyle=1" vertex="1" parent="44zBi0KZz6Z4PLNpd_jy-1">
          <mxGeometry x="944.4749813823186" y="1304.127607361963" width="148.94145182453278" height="80.83435582822085" as="geometry" />
        </mxCell>
        <mxCell id="LIqQr2ay6HJPPpyq8Ubm-45" value="" style="edgeStyle=orthogonalEdgeStyle;rounded=1;orthogonalLoop=1;jettySize=auto;html=1;fontSize=18;fontStyle=1" edge="1" parent="44zBi0KZz6Z4PLNpd_jy-1" source="LIqQr2ay6HJPPpyq8Ubm-46" target="LIqQr2ay6HJPPpyq8Ubm-49">
          <mxGeometry relative="1" as="geometry" />
        </mxCell>
        <mxCell id="LIqQr2ay6HJPPpyq8Ubm-51" value="" style="edgeStyle=orthogonalEdgeStyle;rounded=1;orthogonalLoop=1;jettySize=auto;html=1;fontSize=18;fontStyle=1" edge="1" parent="44zBi0KZz6Z4PLNpd_jy-1" source="LIqQr2ay6HJPPpyq8Ubm-52" target="LIqQr2ay6HJPPpyq8Ubm-30">
          <mxGeometry relative="1" as="geometry" />
        </mxCell>
        <mxCell id="LIqQr2ay6HJPPpyq8Ubm-52" value="Menu management" style="whiteSpace=wrap;html=1;rounded=1;strokeWidth=2;fontSize=18;fontStyle=1" vertex="1" parent="44zBi0KZz6Z4PLNpd_jy-1">
          <mxGeometry x="908.5428561296499" y="719.4257668711656" width="148.94145182453278" height="80.83435582822085" as="geometry" />
        </mxCell>
        <mxCell id="LIqQr2ay6HJPPpyq8Ubm-16" value="" style="edgeStyle=orthogonalEdgeStyle;rounded=1;orthogonalLoop=1;jettySize=auto;html=1;fontSize=18;fontStyle=1" edge="1" parent="44zBi0KZz6Z4PLNpd_jy-1" source="LIqQr2ay6HJPPpyq8Ubm-23" target="LIqQr2ay6HJPPpyq8Ubm-52">
          <mxGeometry relative="1" as="geometry" />
        </mxCell>
        <mxCell id="LIqQr2ay6HJPPpyq8Ubm-53" value="Menu information list&lt;br style=&quot;font-size: 18px;&quot;&gt;（the present pizza information）" style="whiteSpace=wrap;html=1;rounded=1;strokeWidth=2;fontSize=18;fontStyle=1" vertex="1" parent="44zBi0KZz6Z4PLNpd_jy-1">
          <mxGeometry x="1390.1202170289728" y="868.9693251533741" width="192.3827086066882" height="119.9042944785276" as="geometry" />
        </mxCell>
        <mxCell id="LIqQr2ay6HJPPpyq8Ubm-50" value="" style="edgeStyle=orthogonalEdgeStyle;rounded=1;orthogonalLoop=1;jettySize=auto;html=1;fontSize=18;fontStyle=1" edge="1" parent="44zBi0KZz6Z4PLNpd_jy-1" source="LIqQr2ay6HJPPpyq8Ubm-52" target="LIqQr2ay6HJPPpyq8Ubm-53">
          <mxGeometry relative="1" as="geometry" />
        </mxCell>
        <mxCell id="LIqQr2ay6HJPPpyq8Ubm-56" value="Menu categories management" style="whiteSpace=wrap;html=1;rounded=1;strokeWidth=2;fontSize=18;fontStyle=1" vertex="1" parent="44zBi0KZz6Z4PLNpd_jy-1">
          <mxGeometry x="1190.290435831058" y="1530.4638036809815" width="148.94145182453278" height="80.83435582822085" as="geometry" />
        </mxCell>
        <mxCell id="LIqQr2ay6HJPPpyq8Ubm-17" value="" style="edgeStyle=orthogonalEdgeStyle;rounded=1;orthogonalLoop=1;jettySize=auto;html=1;fontSize=18;fontStyle=1" edge="1" parent="44zBi0KZz6Z4PLNpd_jy-1" source="LIqQr2ay6HJPPpyq8Ubm-23" target="LIqQr2ay6HJPPpyq8Ubm-56">
          <mxGeometry relative="1" as="geometry" />
        </mxCell>
        <mxCell id="LIqQr2ay6HJPPpyq8Ubm-58" value="Add new category" style="whiteSpace=wrap;html=1;rounded=1;strokeWidth=2;fontSize=18;fontStyle=1" vertex="1" parent="44zBi0KZz6Z4PLNpd_jy-1">
          <mxGeometry x="1190.290435831058" y="1680.00736196319" width="148.94145182453278" height="80.83435582822085" as="geometry" />
        </mxCell>
        <mxCell id="LIqQr2ay6HJPPpyq8Ubm-54" value="" style="edgeStyle=orthogonalEdgeStyle;rounded=1;orthogonalLoop=1;jettySize=auto;html=1;fontSize=18;fontStyle=1" edge="1" parent="44zBi0KZz6Z4PLNpd_jy-1" source="LIqQr2ay6HJPPpyq8Ubm-56" target="LIqQr2ay6HJPPpyq8Ubm-58">
          <mxGeometry relative="1" as="geometry" />
        </mxCell>
        <mxCell id="LIqQr2ay6HJPPpyq8Ubm-60" value="input:&lt;br style=&quot;border-color: var(--border-color); font-size: 18px;&quot;&gt;Pizzas&lt;br style=&quot;font-size: 18px;&quot;&gt;&amp;nbsp;category" style="shape=parallelogram;html=1;strokeWidth=2;perimeter=parallelogramPerimeter;whiteSpace=wrap;rounded=1;arcSize=12;size=0.23;fontSize=18;fontStyle=1" vertex="1" parent="44zBi0KZz6Z4PLNpd_jy-1">
          <mxGeometry x="1202.7022234831022" y="1806.647852760736" width="124.11787652044399" height="80.83435582822085" as="geometry" />
        </mxCell>
        <mxCell id="LIqQr2ay6HJPPpyq8Ubm-57" value="" style="edgeStyle=orthogonalEdgeStyle;rounded=1;orthogonalLoop=1;jettySize=auto;html=1;fontSize=18;fontStyle=1" edge="1" parent="44zBi0KZz6Z4PLNpd_jy-1" source="LIqQr2ay6HJPPpyq8Ubm-58" target="LIqQr2ay6HJPPpyq8Ubm-60">
          <mxGeometry relative="1" as="geometry" />
        </mxCell>
        <mxCell id="LIqQr2ay6HJPPpyq8Ubm-62" value="Click &quot;Add&quot; button" style="whiteSpace=wrap;html=1;strokeWidth=2;rounded=1;arcSize=12;fontSize=18;fontStyle=1" vertex="1" parent="44zBi0KZz6Z4PLNpd_jy-1">
          <mxGeometry x="1190.290435831058" y="1964.2748466257667" width="148.94145182453278" height="80.83435582822085" as="geometry" />
        </mxCell>
        <mxCell id="LIqQr2ay6HJPPpyq8Ubm-59" value="" style="edgeStyle=orthogonalEdgeStyle;rounded=1;orthogonalLoop=1;jettySize=auto;html=1;fontSize=18;fontStyle=1" edge="1" parent="44zBi0KZz6Z4PLNpd_jy-1" source="LIqQr2ay6HJPPpyq8Ubm-60" target="LIqQr2ay6HJPPpyq8Ubm-62">
          <mxGeometry relative="1" as="geometry" />
        </mxCell>
        <mxCell id="LIqQr2ay6HJPPpyq8Ubm-63" value="Catogory information list" style="whiteSpace=wrap;html=1;rounded=1;strokeWidth=2;fontSize=18;fontStyle=1" vertex="1" parent="44zBi0KZz6Z4PLNpd_jy-1">
          <mxGeometry x="1431.0791162807193" y="1680.00736196319" width="148.94145182453278" height="80.83435582822085" as="geometry" />
        </mxCell>
        <mxCell id="LIqQr2ay6HJPPpyq8Ubm-55" value="" style="edgeStyle=orthogonalEdgeStyle;rounded=1;orthogonalLoop=1;jettySize=auto;html=1;fontSize=18;fontStyle=1" edge="1" parent="44zBi0KZz6Z4PLNpd_jy-1" source="LIqQr2ay6HJPPpyq8Ubm-56" target="LIqQr2ay6HJPPpyq8Ubm-63">
          <mxGeometry relative="1" as="geometry" />
        </mxCell>
        <mxCell id="LIqQr2ay6HJPPpyq8Ubm-64" style="edgeStyle=orthogonalEdgeStyle;rounded=1;orthogonalLoop=1;jettySize=auto;html=1;entryX=0.5;entryY=1;entryDx=0;entryDy=0;fontSize=18;fontStyle=1" edge="1" parent="44zBi0KZz6Z4PLNpd_jy-1" source="LIqQr2ay6HJPPpyq8Ubm-68" target="LIqQr2ay6HJPPpyq8Ubm-63">
          <mxGeometry relative="1" as="geometry" />
        </mxCell>
        <mxCell id="LIqQr2ay6HJPPpyq8Ubm-65" value="update information" style="edgeLabel;html=1;align=center;verticalAlign=middle;resizable=0;points=[];rounded=1;fontSize=18;fontStyle=1" vertex="1" connectable="0" parent="LIqQr2ay6HJPPpyq8Ubm-64">
          <mxGeometry x="0.2049" y="3" relative="1" as="geometry">
            <mxPoint y="9" as="offset" />
          </mxGeometry>
        </mxCell>
        <mxCell id="LIqQr2ay6HJPPpyq8Ubm-66" style="edgeStyle=orthogonalEdgeStyle;rounded=1;orthogonalLoop=1;jettySize=auto;html=1;entryX=0;entryY=0.5;entryDx=0;entryDy=0;fontSize=18;fontStyle=1" edge="1" parent="44zBi0KZz6Z4PLNpd_jy-1" source="LIqQr2ay6HJPPpyq8Ubm-68" target="LIqQr2ay6HJPPpyq8Ubm-58">
          <mxGeometry relative="1" as="geometry">
            <mxPoint x="1179.119826944218" y="1719.0773006134966" as="targetPoint" />
            <Array as="points">
              <mxPoint x="1165.4668605269692" y="2155.5828220858893" />
              <mxPoint x="1165.4668605269692" y="1720.4245398773003" />
            </Array>
          </mxGeometry>
        </mxCell>
        <mxCell id="LIqQr2ay6HJPPpyq8Ubm-67" value="Continue Add&lt;br style=&quot;border-color: var(--border-color); font-size: 18px;&quot;&gt;catogory" style="edgeLabel;html=1;align=center;verticalAlign=middle;resizable=0;points=[];rounded=1;fontSize=18;fontStyle=1" vertex="1" connectable="0" parent="LIqQr2ay6HJPPpyq8Ubm-66">
          <mxGeometry x="0.2322" y="4" relative="1" as="geometry">
            <mxPoint x="-18" y="-1" as="offset" />
          </mxGeometry>
        </mxCell>
        <mxCell id="LIqQr2ay6HJPPpyq8Ubm-68" value="Add successfully" style="whiteSpace=wrap;html=1;strokeWidth=2;rounded=1;arcSize=12;fontSize=18;fontStyle=1" vertex="1" parent="44zBi0KZz6Z4PLNpd_jy-1">
          <mxGeometry x="1190.290435831058" y="2115.165644171779" width="148.94145182453278" height="80.83435582822085" as="geometry" />
        </mxCell>
        <mxCell id="LIqQr2ay6HJPPpyq8Ubm-61" value="" style="edgeStyle=orthogonalEdgeStyle;rounded=1;orthogonalLoop=1;jettySize=auto;html=1;fontSize=18;fontStyle=1" edge="1" parent="44zBi0KZz6Z4PLNpd_jy-1" source="LIqQr2ay6HJPPpyq8Ubm-62" target="LIqQr2ay6HJPPpyq8Ubm-68">
          <mxGeometry relative="1" as="geometry" />
        </mxCell>
        <mxCell id="LIqQr2ay6HJPPpyq8Ubm-71" value="announcement management" style="whiteSpace=wrap;html=1;rounded=1;strokeWidth=2;fontSize=18;fontStyle=1" vertex="1" parent="44zBi0KZz6Z4PLNpd_jy-1">
          <mxGeometry x="248.23575304088797" y="719.4257668711656" width="148.94145182453278" height="80.83435582822085" as="geometry" />
        </mxCell>
        <mxCell id="LIqQr2ay6HJPPpyq8Ubm-18" value="" style="edgeStyle=orthogonalEdgeStyle;rounded=1;orthogonalLoop=1;jettySize=auto;html=1;fontSize=18;fontStyle=1" edge="1" parent="44zBi0KZz6Z4PLNpd_jy-1" source="LIqQr2ay6HJPPpyq8Ubm-23" target="LIqQr2ay6HJPPpyq8Ubm-71">
          <mxGeometry relative="1" as="geometry" />
        </mxCell>
        <mxCell id="LIqQr2ay6HJPPpyq8Ubm-74" value="Add new notice" style="whiteSpace=wrap;html=1;rounded=1;strokeWidth=2;fontSize=18;fontStyle=1" vertex="1" parent="44zBi0KZz6Z4PLNpd_jy-1">
          <mxGeometry x="248.23575304088797" y="868.9693251533741" width="148.94145182453278" height="80.83435582822085" as="geometry" />
        </mxCell>
        <mxCell id="LIqQr2ay6HJPPpyq8Ubm-69" value="" style="edgeStyle=orthogonalEdgeStyle;rounded=1;orthogonalLoop=1;jettySize=auto;html=1;fontSize=18;fontStyle=1" edge="1" parent="44zBi0KZz6Z4PLNpd_jy-1" source="LIqQr2ay6HJPPpyq8Ubm-71" target="LIqQr2ay6HJPPpyq8Ubm-74">
          <mxGeometry relative="1" as="geometry" />
        </mxCell>
        <mxCell id="LIqQr2ay6HJPPpyq8Ubm-76" value="input:&lt;br style=&quot;font-size: 18px;&quot;&gt;notice&amp;nbsp;&lt;br style=&quot;font-size: 18px;&quot;&gt;title" style="shape=parallelogram;html=1;strokeWidth=2;perimeter=parallelogramPerimeter;whiteSpace=wrap;rounded=1;arcSize=12;size=0.23;fontSize=18;fontStyle=1" vertex="1" parent="44zBi0KZz6Z4PLNpd_jy-1">
          <mxGeometry x="178.72974218943932" y="995.6098159509203" width="124.11787652044399" height="80.83435582822085" as="geometry" />
        </mxCell>
        <mxCell id="LIqQr2ay6HJPPpyq8Ubm-72" style="edgeStyle=orthogonalEdgeStyle;rounded=1;orthogonalLoop=1;jettySize=auto;html=1;entryX=0.5;entryY=0;entryDx=0;entryDy=0;fontSize=18;fontStyle=1" edge="1" parent="44zBi0KZz6Z4PLNpd_jy-1" source="LIqQr2ay6HJPPpyq8Ubm-74" target="LIqQr2ay6HJPPpyq8Ubm-76">
          <mxGeometry relative="1" as="geometry" />
        </mxCell>
        <mxCell id="LIqQr2ay6HJPPpyq8Ubm-78" value="input:&lt;br style=&quot;font-size: 18px;&quot;&gt;notice&amp;nbsp;&lt;br style=&quot;font-size: 18px;&quot;&gt;content" style="shape=parallelogram;html=1;strokeWidth=2;perimeter=parallelogramPerimeter;whiteSpace=wrap;rounded=1;arcSize=12;size=0.23;fontSize=18;fontStyle=1" vertex="1" parent="44zBi0KZz6Z4PLNpd_jy-1">
          <mxGeometry x="317.7417638923366" y="995.6098159509203" width="124.11787652044399" height="80.83435582822085" as="geometry" />
        </mxCell>
        <mxCell id="LIqQr2ay6HJPPpyq8Ubm-73" style="edgeStyle=orthogonalEdgeStyle;rounded=1;orthogonalLoop=1;jettySize=auto;html=1;entryX=0.75;entryY=0;entryDx=0;entryDy=0;fontSize=18;fontStyle=1" edge="1" parent="44zBi0KZz6Z4PLNpd_jy-1" source="LIqQr2ay6HJPPpyq8Ubm-74" target="LIqQr2ay6HJPPpyq8Ubm-78">
          <mxGeometry relative="1" as="geometry" />
        </mxCell>
        <mxCell id="LIqQr2ay6HJPPpyq8Ubm-80" value="Click &quot;Add&quot; button" style="whiteSpace=wrap;html=1;strokeWidth=2;rounded=1;arcSize=12;fontSize=18;fontStyle=1" vertex="1" parent="44zBi0KZz6Z4PLNpd_jy-1">
          <mxGeometry x="243.27103798007022" y="1153.236809815951" width="148.94145182453278" height="80.83435582822085" as="geometry" />
        </mxCell>
        <mxCell id="LIqQr2ay6HJPPpyq8Ubm-75" style="edgeStyle=orthogonalEdgeStyle;rounded=1;orthogonalLoop=1;jettySize=auto;html=1;entryX=0.5;entryY=0;entryDx=0;entryDy=0;fontSize=18;fontStyle=1" edge="1" parent="44zBi0KZz6Z4PLNpd_jy-1" source="LIqQr2ay6HJPPpyq8Ubm-76" target="LIqQr2ay6HJPPpyq8Ubm-80">
          <mxGeometry relative="1" as="geometry" />
        </mxCell>
        <mxCell id="LIqQr2ay6HJPPpyq8Ubm-77" style="edgeStyle=orthogonalEdgeStyle;rounded=1;orthogonalLoop=1;jettySize=auto;html=1;entryX=0.5;entryY=0;entryDx=0;entryDy=0;fontSize=18;fontStyle=1" edge="1" parent="44zBi0KZz6Z4PLNpd_jy-1" source="LIqQr2ay6HJPPpyq8Ubm-78" target="LIqQr2ay6HJPPpyq8Ubm-80">
          <mxGeometry relative="1" as="geometry" />
        </mxCell>
        <mxCell id="LIqQr2ay6HJPPpyq8Ubm-83" style="edgeStyle=orthogonalEdgeStyle;rounded=1;orthogonalLoop=1;jettySize=auto;html=1;entryX=1;entryY=0.25;entryDx=0;entryDy=0;fontSize=18;fontStyle=1" edge="1" parent="44zBi0KZz6Z4PLNpd_jy-1" source="LIqQr2ay6HJPPpyq8Ubm-85" target="LIqQr2ay6HJPPpyq8Ubm-74">
          <mxGeometry relative="1" as="geometry">
            <mxPoint x="456.75378559523386" y="889.17791411043" as="targetPoint" />
            <Array as="points">
              <mxPoint x="456.75378559523386" y="1344.5447852760733" />
              <mxPoint x="456.75378559523386" y="889.1779141104295" />
            </Array>
          </mxGeometry>
        </mxCell>
        <mxCell id="LIqQr2ay6HJPPpyq8Ubm-84" value="Continue Add&lt;br style=&quot;border-color: var(--border-color); font-size: 18px;&quot;&gt;new notices" style="edgeLabel;html=1;align=center;verticalAlign=middle;resizable=0;points=[];rounded=1;fontSize=18;fontStyle=1" vertex="1" connectable="0" parent="LIqQr2ay6HJPPpyq8Ubm-83">
          <mxGeometry x="-0.2691" relative="1" as="geometry">
            <mxPoint as="offset" />
          </mxGeometry>
        </mxCell>
        <mxCell id="LIqQr2ay6HJPPpyq8Ubm-85" value="Add successfully" style="whiteSpace=wrap;html=1;strokeWidth=2;rounded=1;arcSize=12;fontSize=18;fontStyle=1" vertex="1" parent="44zBi0KZz6Z4PLNpd_jy-1">
          <mxGeometry x="243.27103798007022" y="1304.127607361963" width="148.94145182453278" height="80.83435582822085" as="geometry" />
        </mxCell>
        <mxCell id="LIqQr2ay6HJPPpyq8Ubm-79" style="edgeStyle=orthogonalEdgeStyle;rounded=1;orthogonalLoop=1;jettySize=auto;html=1;entryX=0.5;entryY=0;entryDx=0;entryDy=0;fontSize=18;fontStyle=1" edge="1" parent="44zBi0KZz6Z4PLNpd_jy-1" source="LIqQr2ay6HJPPpyq8Ubm-80" target="LIqQr2ay6HJPPpyq8Ubm-85">
          <mxGeometry relative="1" as="geometry" />
        </mxCell>
        <mxCell id="LIqQr2ay6HJPPpyq8Ubm-86" value="announcement list" style="whiteSpace=wrap;html=1;rounded=1;strokeWidth=2;fontSize=18;fontStyle=1" vertex="1" parent="44zBi0KZz6Z4PLNpd_jy-1">
          <mxGeometry y="868.9693251533741" width="148.94145182453278" height="80.83435582822085" as="geometry" />
        </mxCell>
        <mxCell id="LIqQr2ay6HJPPpyq8Ubm-70" value="" style="edgeStyle=orthogonalEdgeStyle;rounded=1;orthogonalLoop=1;jettySize=auto;html=1;fontSize=18;fontStyle=1" edge="1" parent="44zBi0KZz6Z4PLNpd_jy-1" source="LIqQr2ay6HJPPpyq8Ubm-71" target="LIqQr2ay6HJPPpyq8Ubm-86">
          <mxGeometry relative="1" as="geometry" />
        </mxCell>
        <mxCell id="LIqQr2ay6HJPPpyq8Ubm-81" style="edgeStyle=orthogonalEdgeStyle;rounded=1;orthogonalLoop=1;jettySize=auto;html=1;entryX=0.5;entryY=1;entryDx=0;entryDy=0;fontSize=18;fontStyle=1" edge="1" parent="44zBi0KZz6Z4PLNpd_jy-1" source="LIqQr2ay6HJPPpyq8Ubm-85" target="LIqQr2ay6HJPPpyq8Ubm-86">
          <mxGeometry relative="1" as="geometry" />
        </mxCell>
        <mxCell id="LIqQr2ay6HJPPpyq8Ubm-82" value="update information" style="edgeLabel;html=1;align=center;verticalAlign=middle;resizable=0;points=[];rounded=1;fontSize=18;fontStyle=1" vertex="1" connectable="0" parent="LIqQr2ay6HJPPpyq8Ubm-81">
          <mxGeometry x="0.4121" y="4" relative="1" as="geometry">
            <mxPoint y="51" as="offset" />
          </mxGeometry>
        </mxCell>
        <mxCell id="LIqQr2ay6HJPPpyq8Ubm-90" value="Order information management" style="whiteSpace=wrap;html=1;rounded=1;strokeWidth=2;fontSize=18;fontStyle=1" vertex="1" parent="44zBi0KZz6Z4PLNpd_jy-1">
          <mxGeometry x="516.888896769389" y="1549.3251533742332" width="148.94145182453278" height="80.83435582822085" as="geometry" />
        </mxCell>
        <mxCell id="LIqQr2ay6HJPPpyq8Ubm-19" value="" style="edgeStyle=orthogonalEdgeStyle;rounded=1;orthogonalLoop=1;jettySize=auto;html=1;fontSize=18;fontStyle=1" edge="1" parent="44zBi0KZz6Z4PLNpd_jy-1" source="LIqQr2ay6HJPPpyq8Ubm-23" target="LIqQr2ay6HJPPpyq8Ubm-90">
          <mxGeometry relative="1" as="geometry" />
        </mxCell>
        <mxCell id="LIqQr2ay6HJPPpyq8Ubm-20" value="choose from navigator bar" style="edgeLabel;html=1;align=center;verticalAlign=middle;resizable=0;points=[];rounded=1;fontSize=18;fontStyle=1" vertex="1" connectable="0" parent="LIqQr2ay6HJPPpyq8Ubm-19">
          <mxGeometry x="-0.5251" y="2" relative="1" as="geometry">
            <mxPoint as="offset" />
          </mxGeometry>
        </mxCell>
        <mxCell id="LIqQr2ay6HJPPpyq8Ubm-91" value="order information list" style="whiteSpace=wrap;html=1;rounded=1;strokeWidth=2;fontSize=18;fontStyle=1" vertex="1" parent="44zBi0KZz6Z4PLNpd_jy-1">
          <mxGeometry x="760.1599347494592" y="1698.8687116564417" width="148.94145182453278" height="80.83435582822085" as="geometry" />
        </mxCell>
        <mxCell id="LIqQr2ay6HJPPpyq8Ubm-87" value="" style="edgeStyle=orthogonalEdgeStyle;rounded=1;orthogonalLoop=1;jettySize=auto;html=1;fontSize=18;fontStyle=1" edge="1" parent="44zBi0KZz6Z4PLNpd_jy-1" source="LIqQr2ay6HJPPpyq8Ubm-90" target="LIqQr2ay6HJPPpyq8Ubm-91">
          <mxGeometry relative="1" as="geometry" />
        </mxCell>
        <mxCell id="LIqQr2ay6HJPPpyq8Ubm-98" value="sales order inquiry（check ordrers）" style="whiteSpace=wrap;html=1;rounded=1;strokeWidth=2;fontSize=18;fontStyle=1" vertex="1" parent="44zBi0KZz6Z4PLNpd_jy-1">
          <mxGeometry x="516.888896769389" y="1698.8687116564417" width="148.94145182453278" height="80.83435582822085" as="geometry" />
        </mxCell>
        <mxCell id="LIqQr2ay6HJPPpyq8Ubm-88" value="" style="edgeStyle=orthogonalEdgeStyle;rounded=1;orthogonalLoop=1;jettySize=auto;html=1;fontSize=18;fontStyle=1" edge="1" parent="44zBi0KZz6Z4PLNpd_jy-1" source="LIqQr2ay6HJPPpyq8Ubm-90" target="LIqQr2ay6HJPPpyq8Ubm-98">
          <mxGeometry relative="1" as="geometry" />
        </mxCell>
        <mxCell id="LIqQr2ay6HJPPpyq8Ubm-100" value="" style="verticalLabelPosition=bottom;verticalAlign=top;html=1;shape=mxgraph.flowchart.parallel_mode;pointerEvents=1;rounded=1;fontSize=18;fontStyle=1" vertex="1" parent="44zBi0KZz6Z4PLNpd_jy-1">
          <mxGeometry x="478.4123550480514" y="1934.6355828220856" width="225.89453526720806" height="53.889570552147234" as="geometry" />
        </mxCell>
        <mxCell id="LIqQr2ay6HJPPpyq8Ubm-92" value="" style="edgeStyle=orthogonalEdgeStyle;rounded=1;orthogonalLoop=1;jettySize=auto;html=1;fontSize=18;fontStyle=1" edge="1" parent="44zBi0KZz6Z4PLNpd_jy-1" source="LIqQr2ay6HJPPpyq8Ubm-98" target="LIqQr2ay6HJPPpyq8Ubm-100">
          <mxGeometry relative="1" as="geometry" />
        </mxCell>
        <mxCell id="LIqQr2ay6HJPPpyq8Ubm-93" value="Search by &lt;br style=&quot;font-size: 18px;&quot;&gt;pizza name" style="edgeLabel;html=1;align=center;verticalAlign=middle;resizable=0;points=[];rounded=1;fontSize=18;fontStyle=1" vertex="1" connectable="0" parent="LIqQr2ay6HJPPpyq8Ubm-92">
          <mxGeometry x="0.2215" y="1" relative="1" as="geometry">
            <mxPoint y="6" as="offset" />
          </mxGeometry>
        </mxCell>
        <mxCell id="LIqQr2ay6HJPPpyq8Ubm-94" style="edgeStyle=orthogonalEdgeStyle;rounded=1;orthogonalLoop=1;jettySize=auto;html=1;entryX=0;entryY=0;entryDx=0;entryDy=0;entryPerimeter=0;fontSize=18;fontStyle=1" edge="1" parent="44zBi0KZz6Z4PLNpd_jy-1" source="LIqQr2ay6HJPPpyq8Ubm-98" target="LIqQr2ay6HJPPpyq8Ubm-100">
          <mxGeometry relative="1" as="geometry" />
        </mxCell>
        <mxCell id="LIqQr2ay6HJPPpyq8Ubm-95" value="Search by&lt;br style=&quot;font-size: 18px;&quot;&gt;UserID" style="edgeLabel;html=1;align=center;verticalAlign=middle;resizable=0;points=[];rounded=1;fontSize=18;fontStyle=1" vertex="1" connectable="0" parent="LIqQr2ay6HJPPpyq8Ubm-94">
          <mxGeometry x="0.6678" relative="1" as="geometry">
            <mxPoint as="offset" />
          </mxGeometry>
        </mxCell>
        <mxCell id="LIqQr2ay6HJPPpyq8Ubm-96" style="edgeStyle=orthogonalEdgeStyle;rounded=1;orthogonalLoop=1;jettySize=auto;html=1;entryX=1;entryY=0;entryDx=0;entryDy=0;entryPerimeter=0;fontSize=18;fontStyle=1" edge="1" parent="44zBi0KZz6Z4PLNpd_jy-1" source="LIqQr2ay6HJPPpyq8Ubm-98" target="LIqQr2ay6HJPPpyq8Ubm-100">
          <mxGeometry relative="1" as="geometry" />
        </mxCell>
        <mxCell id="LIqQr2ay6HJPPpyq8Ubm-97" value="Search by&lt;br style=&quot;font-size: 18px;&quot;&gt;Sales date" style="edgeLabel;html=1;align=center;verticalAlign=middle;resizable=0;points=[];rounded=1;fontSize=18;fontStyle=1" vertex="1" connectable="0" parent="LIqQr2ay6HJPPpyq8Ubm-96">
          <mxGeometry x="0.6355" y="2" relative="1" as="geometry">
            <mxPoint y="6" as="offset" />
          </mxGeometry>
        </mxCell>
        <mxCell id="LIqQr2ay6HJPPpyq8Ubm-101" value="List of&amp;nbsp;Sales order search result information list" style="whiteSpace=wrap;html=1;verticalAlign=top;rounded=1;fontSize=18;fontStyle=1" vertex="1" parent="44zBi0KZz6Z4PLNpd_jy-1">
          <mxGeometry x="516.89" y="2014.12" width="163.11" height="91.88" as="geometry" />
        </mxCell>
        <mxCell id="LIqQr2ay6HJPPpyq8Ubm-99" value="" style="edgeStyle=orthogonalEdgeStyle;rounded=1;orthogonalLoop=1;jettySize=auto;html=1;fontSize=18;fontStyle=1" edge="1" parent="44zBi0KZz6Z4PLNpd_jy-1" source="LIqQr2ay6HJPPpyq8Ubm-100" target="LIqQr2ay6HJPPpyq8Ubm-101">
          <mxGeometry relative="1" as="geometry" />
        </mxCell>
        <mxCell id="LIqQr2ay6HJPPpyq8Ubm-102" value="Daily sales stastics" style="whiteSpace=wrap;html=1;rounded=1;strokeWidth=2;fontSize=18;fontStyle=1" vertex="1" parent="44zBi0KZz6Z4PLNpd_jy-1">
          <mxGeometry x="968.6779673038052" y="1700.2159509202454" width="148.94145182453278" height="80.83435582822085" as="geometry" />
        </mxCell>
        <mxCell id="LIqQr2ay6HJPPpyq8Ubm-89" value="" style="edgeStyle=orthogonalEdgeStyle;rounded=1;orthogonalLoop=1;jettySize=auto;html=1;fontSize=18;fontStyle=1" edge="1" parent="44zBi0KZz6Z4PLNpd_jy-1" source="LIqQr2ay6HJPPpyq8Ubm-90" target="LIqQr2ay6HJPPpyq8Ubm-102">
          <mxGeometry relative="1" as="geometry" />
        </mxCell>
        <mxCell id="LIqQr2ay6HJPPpyq8Ubm-104" value="Log out" style="whiteSpace=wrap;html=1;rounded=1;strokeWidth=2;fontSize=18;fontStyle=1" vertex="1" parent="44zBi0KZz6Z4PLNpd_jy-1">
          <mxGeometry x="1396.2640519167346" y="400.1300613496932" width="148.94145182453278" height="80.83435582822085" as="geometry" />
        </mxCell>
        <mxCell id="LIqQr2ay6HJPPpyq8Ubm-21" value="" style="edgeStyle=orthogonalEdgeStyle;rounded=1;orthogonalLoop=1;jettySize=auto;html=1;fontSize=18;fontStyle=1" edge="1" parent="44zBi0KZz6Z4PLNpd_jy-1" source="LIqQr2ay6HJPPpyq8Ubm-23" target="LIqQr2ay6HJPPpyq8Ubm-104">
          <mxGeometry relative="1" as="geometry" />
        </mxCell>
        <mxCell id="LIqQr2ay6HJPPpyq8Ubm-22" value="choose from navigator bar" style="edgeLabel;html=1;align=center;verticalAlign=middle;resizable=0;points=[];rounded=1;fontSize=18;fontStyle=1" vertex="1" connectable="0" parent="LIqQr2ay6HJPPpyq8Ubm-21">
          <mxGeometry x="-0.1576" y="-1" relative="1" as="geometry">
            <mxPoint as="offset" />
          </mxGeometry>
        </mxCell>
        <mxCell id="LIqQr2ay6HJPPpyq8Ubm-105" value="end" style="strokeWidth=2;html=1;shape=mxgraph.flowchart.terminator;whiteSpace=wrap;rounded=1;fontSize=18;fontStyle=1" vertex="1" parent="44zBi0KZz6Z4PLNpd_jy-1">
          <mxGeometry x="1625.882123479556" y="400.1300613496932" width="124.11787652044399" height="80.83435582822085" as="geometry" />
        </mxCell>
        <mxCell id="LIqQr2ay6HJPPpyq8Ubm-103" style="edgeStyle=orthogonalEdgeStyle;rounded=1;orthogonalLoop=1;jettySize=auto;html=1;entryX=0;entryY=0.5;entryDx=0;entryDy=0;entryPerimeter=0;fontSize=18;fontStyle=1" edge="1" parent="44zBi0KZz6Z4PLNpd_jy-1" source="LIqQr2ay6HJPPpyq8Ubm-104" target="LIqQr2ay6HJPPpyq8Ubm-105">
          <mxGeometry relative="1" as="geometry" />
        </mxCell>
      </root>
    </mxGraphModel>
  </diagram>
  <diagram id="cpaI8thXzlRLHd5p4JrB" name="第 4 页">
    <mxGraphModel dx="2815" dy="2903" grid="0" gridSize="14" guides="1" tooltips="1" connect="1" arrows="1" fold="1" page="0" pageScale="1" pageWidth="827" pageHeight="1169" math="0" shadow="0">
      <root>
        <mxCell id="0" />
        <mxCell id="1" parent="0" />
        <mxCell id="KfOCIXJU434fRKiUwHN7-1" value="" style="group;rounded=1;fontSize=16;fontStyle=1" vertex="1" connectable="0" parent="1">
          <mxGeometry x="-851" y="-1996" width="1309" height="734" as="geometry" />
        </mxCell>
        <mxCell id="KfOCIXJU434fRKiUwHN7-2" value="" style="edgeStyle=orthogonalEdgeStyle;rounded=1;orthogonalLoop=1;jettySize=auto;html=1;labelBackgroundColor=none;fontColor=default;fontSize=16;fontStyle=1" edge="1" parent="KfOCIXJU434fRKiUwHN7-1" source="KfOCIXJU434fRKiUwHN7-3">
          <mxGeometry relative="1" as="geometry">
            <mxPoint x="534.661971830986" y="153.4727272727273" as="targetPoint" />
          </mxGeometry>
        </mxCell>
        <mxCell id="KfOCIXJU434fRKiUwHN7-3" value="&lt;h1 style=&quot;font-size: 16px;&quot;&gt;&lt;font style=&quot;font-size: 16px;&quot;&gt;start as a user&lt;/font&gt;&lt;/h1&gt;" style="strokeWidth=2;html=1;shape=mxgraph.flowchart.start_2;whiteSpace=wrap;rounded=1;labelBackgroundColor=none;align=center;fontSize=16;fontStyle=1" vertex="1" parent="KfOCIXJU434fRKiUwHN7-1">
          <mxGeometry x="490.6189358372458" width="90.13458528951487" height="93.41818181818182" as="geometry" />
        </mxCell>
        <mxCell id="KfOCIXJU434fRKiUwHN7-4" value="" style="edgeStyle=orthogonalEdgeStyle;rounded=1;orthogonalLoop=1;jettySize=auto;html=1;fontSize=16;fontStyle=1" edge="1" parent="KfOCIXJU434fRKiUwHN7-1" source="KfOCIXJU434fRKiUwHN7-6">
          <mxGeometry relative="1" as="geometry">
            <mxPoint x="534.661971830986" y="262.4606060606061" as="targetPoint" />
          </mxGeometry>
        </mxCell>
        <mxCell id="KfOCIXJU434fRKiUwHN7-5" style="edgeStyle=orthogonalEdgeStyle;rounded=1;orthogonalLoop=1;jettySize=auto;html=1;fontSize=16;fontStyle=1" edge="1" parent="KfOCIXJU434fRKiUwHN7-1">
          <mxGeometry relative="1" as="geometry">
            <mxPoint x="1007.9287949921754" y="262.4606060606061" as="targetPoint" />
            <mxPoint x="538.7589984350548" y="186.85009352787145" as="sourcePoint" />
            <Array as="points">
              <mxPoint x="1007.8685446009391" y="186.83636363636364" />
            </Array>
          </mxGeometry>
        </mxCell>
        <mxCell id="KfOCIXJU434fRKiUwHN7-6" value="Main page" style="whiteSpace=wrap;html=1;strokeWidth=2;rounded=1;labelBackgroundColor=none;fontSize=16;fontStyle=1" vertex="1" parent="KfOCIXJU434fRKiUwHN7-1">
          <mxGeometry x="473.20657276995314" y="153.4727272727273" width="122.91079812206574" height="66.72727272727273" as="geometry" />
        </mxCell>
        <mxCell id="KfOCIXJU434fRKiUwHN7-7" value="" style="edgeStyle=orthogonalEdgeStyle;rounded=1;orthogonalLoop=1;jettySize=auto;html=1;fontSize=16;fontStyle=1" edge="1" parent="KfOCIXJU434fRKiUwHN7-1" source="KfOCIXJU434fRKiUwHN7-9">
          <mxGeometry relative="1" as="geometry">
            <mxPoint x="536.7104851330204" y="418.1575757575758" as="targetPoint" />
          </mxGeometry>
        </mxCell>
        <mxCell id="KfOCIXJU434fRKiUwHN7-8" value="put into cart" style="edgeLabel;html=1;align=center;verticalAlign=middle;resizable=0;points=[];rounded=1;fontSize=16;fontStyle=1" vertex="1" connectable="0" parent="KfOCIXJU434fRKiUwHN7-7">
          <mxGeometry x="-0.1605" y="-2" relative="1" as="geometry">
            <mxPoint as="offset" />
          </mxGeometry>
        </mxCell>
        <mxCell id="KfOCIXJU434fRKiUwHN7-9" value="choose pizzas" style="whiteSpace=wrap;html=1;strokeWidth=2;rounded=1;labelBackgroundColor=none;fontSize=16;fontStyle=1" vertex="1" parent="KfOCIXJU434fRKiUwHN7-1">
          <mxGeometry x="473.20657276995314" y="262.4606060606061" width="122.91079812206574" height="66.72727272727273" as="geometry" />
        </mxCell>
        <mxCell id="KfOCIXJU434fRKiUwHN7-10" value="" style="edgeStyle=orthogonalEdgeStyle;rounded=1;orthogonalLoop=1;jettySize=auto;html=1;entryX=1;entryY=0.5;entryDx=0;entryDy=0;fontSize=16;fontStyle=1" edge="1" parent="KfOCIXJU434fRKiUwHN7-1" source="KfOCIXJU434fRKiUwHN7-14" target="KfOCIXJU434fRKiUwHN7-9">
          <mxGeometry relative="1" as="geometry">
            <mxPoint x="676.0093896713615" y="464.86666666666673" as="targetPoint" />
            <Array as="points">
              <mxPoint x="618.6510172143976" y="464.86666666666673" />
              <mxPoint x="618.6510172143976" y="295.8242424242424" />
            </Array>
          </mxGeometry>
        </mxCell>
        <mxCell id="KfOCIXJU434fRKiUwHN7-11" value="No" style="edgeLabel;html=1;align=center;verticalAlign=middle;resizable=0;points=[];rounded=1;fontSize=16;fontStyle=1" vertex="1" connectable="0" parent="KfOCIXJU434fRKiUwHN7-10">
          <mxGeometry x="-0.1907" y="1" relative="1" as="geometry">
            <mxPoint y="-33" as="offset" />
          </mxGeometry>
        </mxCell>
        <mxCell id="KfOCIXJU434fRKiUwHN7-12" value="" style="edgeStyle=orthogonalEdgeStyle;rounded=1;orthogonalLoop=1;jettySize=auto;html=1;fontSize=16;fontStyle=1" edge="1" parent="KfOCIXJU434fRKiUwHN7-1" source="KfOCIXJU434fRKiUwHN7-14">
          <mxGeometry relative="1" as="geometry">
            <mxPoint x="536.7104851330204" y="576.0787878787879" as="targetPoint" />
          </mxGeometry>
        </mxCell>
        <mxCell id="KfOCIXJU434fRKiUwHN7-13" value="Yes" style="edgeLabel;html=1;align=center;verticalAlign=middle;resizable=0;points=[];rounded=1;fontSize=16;fontStyle=1" vertex="1" connectable="0" parent="KfOCIXJU434fRKiUwHN7-12">
          <mxGeometry x="-0.2754" y="1" relative="1" as="geometry">
            <mxPoint as="offset" />
          </mxGeometry>
        </mxCell>
        <mxCell id="KfOCIXJU434fRKiUwHN7-14" value="Do you want to submit?" style="rhombus;whiteSpace=wrap;html=1;rounded=1;fontSize=16;fontStyle=1" vertex="1" parent="KfOCIXJU434fRKiUwHN7-1">
          <mxGeometry x="477.303599374022" y="418.1575757575758" width="118.8137715179969" height="93.41818181818182" as="geometry" />
        </mxCell>
        <mxCell id="KfOCIXJU434fRKiUwHN7-15" value="registration page" style="whiteSpace=wrap;html=1;strokeWidth=2;rounded=1;labelBackgroundColor=none;fontSize=16;fontStyle=1" vertex="1" parent="KfOCIXJU434fRKiUwHN7-1">
          <mxGeometry y="264.6848484848485" width="122.91079812206574" height="66.72727272727273" as="geometry" />
        </mxCell>
        <mxCell id="KfOCIXJU434fRKiUwHN7-16" value="" style="edgeStyle=orthogonalEdgeStyle;rounded=1;orthogonalLoop=1;jettySize=auto;html=1;fontSize=16;fontStyle=1" edge="1" parent="KfOCIXJU434fRKiUwHN7-1" source="KfOCIXJU434fRKiUwHN7-6" target="KfOCIXJU434fRKiUwHN7-15">
          <mxGeometry relative="1" as="geometry">
            <Array as="points">
              <mxPoint x="61.45539906103287" y="186.83636363636364" />
            </Array>
          </mxGeometry>
        </mxCell>
        <mxCell id="KfOCIXJU434fRKiUwHN7-17" value="choose from navigator bar" style="edgeLabel;html=1;align=center;verticalAlign=middle;resizable=0;points=[];rounded=1;fontSize=16;fontStyle=1" vertex="1" connectable="0" parent="KfOCIXJU434fRKiUwHN7-16">
          <mxGeometry x="0.0306" y="-2" relative="1" as="geometry">
            <mxPoint x="15" as="offset" />
          </mxGeometry>
        </mxCell>
        <mxCell id="KfOCIXJU434fRKiUwHN7-18" value="sign up bottom" style="edgeLabel;html=1;align=center;verticalAlign=middle;resizable=0;points=[];rounded=1;fontSize=16;fontStyle=1" vertex="1" connectable="0" parent="KfOCIXJU434fRKiUwHN7-16">
          <mxGeometry x="0.7535" y="1" relative="1" as="geometry">
            <mxPoint y="22" as="offset" />
          </mxGeometry>
        </mxCell>
        <mxCell id="KfOCIXJU434fRKiUwHN7-19" value="log in page" style="whiteSpace=wrap;html=1;strokeWidth=2;rounded=1;labelBackgroundColor=none;fontSize=16;fontStyle=1" vertex="1" parent="KfOCIXJU434fRKiUwHN7-1">
          <mxGeometry x="192.56025039123634" y="264.6848484848485" width="122.91079812206574" height="66.72727272727273" as="geometry" />
        </mxCell>
        <mxCell id="KfOCIXJU434fRKiUwHN7-20" style="edgeStyle=orthogonalEdgeStyle;rounded=1;orthogonalLoop=1;jettySize=auto;html=1;fontSize=16;fontStyle=1" edge="1" parent="KfOCIXJU434fRKiUwHN7-1" source="KfOCIXJU434fRKiUwHN7-22">
          <mxGeometry relative="1" as="geometry">
            <mxPoint x="57.35837245696401" y="342.53333333333336" as="targetPoint" />
          </mxGeometry>
        </mxCell>
        <mxCell id="KfOCIXJU434fRKiUwHN7-21" value="Yes" style="edgeLabel;html=1;align=center;verticalAlign=middle;resizable=0;points=[];rounded=1;fontSize=16;fontStyle=1" vertex="1" connectable="0" parent="KfOCIXJU434fRKiUwHN7-20">
          <mxGeometry x="-0.136" relative="1" as="geometry">
            <mxPoint as="offset" />
          </mxGeometry>
        </mxCell>
        <mxCell id="KfOCIXJU434fRKiUwHN7-22" value="Do you a new user？" style="strokeWidth=2;html=1;shape=mxgraph.flowchart.decision;whiteSpace=wrap;rounded=1;fontSize=16;fontStyle=1" vertex="1" parent="KfOCIXJU434fRKiUwHN7-1">
          <mxGeometry x="202.80281690140848" y="402.5878787878788" width="102.42566510172146" height="111.21212121212122" as="geometry" />
        </mxCell>
        <mxCell id="KfOCIXJU434fRKiUwHN7-23" value="" style="edgeStyle=orthogonalEdgeStyle;rounded=1;orthogonalLoop=1;jettySize=auto;html=1;fontSize=16;fontStyle=1" edge="1" parent="KfOCIXJU434fRKiUwHN7-1" source="KfOCIXJU434fRKiUwHN7-19" target="KfOCIXJU434fRKiUwHN7-22">
          <mxGeometry relative="1" as="geometry" />
        </mxCell>
        <mxCell id="KfOCIXJU434fRKiUwHN7-24" value="" style="edgeStyle=orthogonalEdgeStyle;rounded=1;orthogonalLoop=1;jettySize=auto;html=1;entryX=0;entryY=0.75;entryDx=0;entryDy=0;fontSize=16;fontStyle=1" edge="1" parent="KfOCIXJU434fRKiUwHN7-1" source="KfOCIXJU434fRKiUwHN7-26" target="KfOCIXJU434fRKiUwHN7-6">
          <mxGeometry relative="1" as="geometry">
            <mxPoint x="254.0156494522692" y="731.7757575757576" as="targetPoint" />
          </mxGeometry>
        </mxCell>
        <mxCell id="KfOCIXJU434fRKiUwHN7-25" value="Login &lt;br&gt;successfully" style="edgeLabel;html=1;align=center;verticalAlign=middle;resizable=0;points=[];rounded=1;fontSize=16;fontStyle=1" vertex="1" connectable="0" parent="KfOCIXJU434fRKiUwHN7-24">
          <mxGeometry x="-0.058" y="-2" relative="1" as="geometry">
            <mxPoint as="offset" />
          </mxGeometry>
        </mxCell>
        <mxCell id="KfOCIXJU434fRKiUwHN7-26" value="Log in" style="whiteSpace=wrap;html=1;strokeWidth=2;rounded=1;fontSize=16;fontStyle=1" vertex="1" parent="KfOCIXJU434fRKiUwHN7-1">
          <mxGeometry x="192.56025039123634" y="576.0787878787879" width="122.91079812206574" height="66.72727272727273" as="geometry" />
        </mxCell>
        <mxCell id="KfOCIXJU434fRKiUwHN7-27" value="" style="edgeStyle=orthogonalEdgeStyle;rounded=1;orthogonalLoop=1;jettySize=auto;html=1;fontSize=16;fontStyle=1" edge="1" parent="KfOCIXJU434fRKiUwHN7-1" source="KfOCIXJU434fRKiUwHN7-22" target="KfOCIXJU434fRKiUwHN7-26">
          <mxGeometry relative="1" as="geometry" />
        </mxCell>
        <mxCell id="KfOCIXJU434fRKiUwHN7-28" value="No" style="edgeLabel;html=1;align=center;verticalAlign=middle;resizable=0;points=[];rounded=1;fontSize=16;fontStyle=1" vertex="1" connectable="0" parent="KfOCIXJU434fRKiUwHN7-27">
          <mxGeometry x="-0.1855" relative="1" as="geometry">
            <mxPoint as="offset" />
          </mxGeometry>
        </mxCell>
        <mxCell id="KfOCIXJU434fRKiUwHN7-29" value="" style="endArrow=classic;html=1;rounded=1;entryX=0.5;entryY=0;entryDx=0;entryDy=0;fontSize=16;fontStyle=1" edge="1" parent="KfOCIXJU434fRKiUwHN7-1" target="KfOCIXJU434fRKiUwHN7-19">
          <mxGeometry width="50" height="50" relative="1" as="geometry">
            <mxPoint x="254.0156494522692" y="192.3969696969697" as="sourcePoint" />
            <mxPoint x="254.0156494522692" y="254.6757575757576" as="targetPoint" />
          </mxGeometry>
        </mxCell>
        <mxCell id="KfOCIXJU434fRKiUwHN7-30" value="&lt;span style=&quot;color: rgb(0, 0, 0); font-family: Helvetica; font-size: 16px; font-style: normal; font-variant-ligatures: normal; font-variant-caps: normal; letter-spacing: normal; orphans: 2; text-align: center; text-indent: 0px; text-transform: none; widows: 2; word-spacing: 0px; -webkit-text-stroke-width: 0px; background-color: rgb(255, 255, 255); text-decoration-thickness: initial; text-decoration-style: initial; text-decoration-color: initial; float: none; display: inline !important;&quot;&gt;Log in bottom&lt;/span&gt;" style="text;whiteSpace=wrap;html=1;rounded=1;fontSize=16;fontStyle=1" vertex="1" parent="KfOCIXJU434fRKiUwHN7-1">
          <mxGeometry x="219.1909233176839" y="196.84545454545454" width="86.03755868544603" height="31.13939393939394" as="geometry" />
        </mxCell>
        <mxCell id="KfOCIXJU434fRKiUwHN7-31" style="edgeStyle=orthogonalEdgeStyle;rounded=1;orthogonalLoop=1;jettySize=auto;html=1;entryX=1;entryY=0.75;entryDx=0;entryDy=0;fontSize=16;fontStyle=1" edge="1" parent="KfOCIXJU434fRKiUwHN7-1" source="KfOCIXJU434fRKiUwHN7-33" target="KfOCIXJU434fRKiUwHN7-6">
          <mxGeometry relative="1" as="geometry">
            <Array as="points">
              <mxPoint x="642.2089201877935" y="280.25454545454545" />
              <mxPoint x="642.2089201877935" y="203.51818181818183" />
            </Array>
          </mxGeometry>
        </mxCell>
        <mxCell id="KfOCIXJU434fRKiUwHN7-32" value="you want&lt;br style=&quot;font-size: 16px;&quot;&gt;to continue&lt;br style=&quot;font-size: 16px;&quot;&gt;order food" style="edgeLabel;html=1;align=center;verticalAlign=middle;resizable=0;points=[];rounded=1;fontSize=16;fontStyle=1" vertex="1" connectable="0" parent="KfOCIXJU434fRKiUwHN7-31">
          <mxGeometry x="0.1978" y="1" relative="1" as="geometry">
            <mxPoint y="15" as="offset" />
          </mxGeometry>
        </mxCell>
        <mxCell id="KfOCIXJU434fRKiUwHN7-33" value="Shopping cart" style="whiteSpace=wrap;html=1;strokeWidth=2;rounded=1;labelBackgroundColor=none;fontSize=16;fontStyle=1" vertex="1" parent="KfOCIXJU434fRKiUwHN7-1">
          <mxGeometry x="688.3004694835682" y="262.4606060606061" width="122.91079812206574" height="66.72727272727273" as="geometry" />
        </mxCell>
        <mxCell id="KfOCIXJU434fRKiUwHN7-34" value="" style="edgeStyle=orthogonalEdgeStyle;rounded=1;orthogonalLoop=1;jettySize=auto;html=1;fontSize=16;fontStyle=1" edge="1" parent="KfOCIXJU434fRKiUwHN7-1" source="KfOCIXJU434fRKiUwHN7-6" target="KfOCIXJU434fRKiUwHN7-33">
          <mxGeometry relative="1" as="geometry" />
        </mxCell>
        <mxCell id="KfOCIXJU434fRKiUwHN7-35" value="My order" style="whiteSpace=wrap;html=1;strokeWidth=2;rounded=1;labelBackgroundColor=none;fontSize=16;fontStyle=1" vertex="1" parent="KfOCIXJU434fRKiUwHN7-1">
          <mxGeometry x="946.9252738654149" y="262.4606060606061" width="122.91079812206574" height="66.72727272727273" as="geometry" />
        </mxCell>
        <mxCell id="KfOCIXJU434fRKiUwHN7-36" style="edgeStyle=orthogonalEdgeStyle;rounded=1;orthogonalLoop=1;jettySize=auto;html=1;entryX=0;entryY=0.5;entryDx=0;entryDy=0;fontSize=16;fontStyle=1" edge="1" parent="KfOCIXJU434fRKiUwHN7-1" source="KfOCIXJU434fRKiUwHN7-40" target="KfOCIXJU434fRKiUwHN7-33">
          <mxGeometry relative="1" as="geometry" />
        </mxCell>
        <mxCell id="KfOCIXJU434fRKiUwHN7-37" value="Yes" style="edgeLabel;html=1;align=center;verticalAlign=middle;resizable=0;points=[];rounded=1;fontSize=16;fontStyle=1" vertex="1" connectable="0" parent="KfOCIXJU434fRKiUwHN7-36">
          <mxGeometry x="0.0967" y="-2" relative="1" as="geometry">
            <mxPoint x="-3" y="85" as="offset" />
          </mxGeometry>
        </mxCell>
        <mxCell id="KfOCIXJU434fRKiUwHN7-38" style="edgeStyle=orthogonalEdgeStyle;rounded=1;orthogonalLoop=1;jettySize=auto;html=1;fontSize=16;fontStyle=1" edge="1" parent="KfOCIXJU434fRKiUwHN7-1">
          <mxGeometry relative="1" as="geometry">
            <mxPoint x="454.25782472613463" y="630.5727272727273" as="sourcePoint" />
            <mxPoint x="315.4710485133021" y="298.04848484848486" as="targetPoint" />
            <Array as="points">
              <mxPoint x="451.6971830985916" y="630.5727272727273" />
              <mxPoint x="451.6971830985916" y="298.04848484848486" />
            </Array>
          </mxGeometry>
        </mxCell>
        <mxCell id="KfOCIXJU434fRKiUwHN7-39" value="No" style="edgeLabel;html=1;align=center;verticalAlign=middle;resizable=0;points=[];rounded=1;fontSize=16;fontStyle=1" vertex="1" connectable="0" parent="KfOCIXJU434fRKiUwHN7-38">
          <mxGeometry x="-0.1071" y="-2" relative="1" as="geometry">
            <mxPoint y="113" as="offset" />
          </mxGeometry>
        </mxCell>
        <mxCell id="KfOCIXJU434fRKiUwHN7-40" value="&amp;nbsp; &amp;nbsp;Do you log in?&lt;br style=&quot;font-size: 16px;&quot;&gt;(check by the system)" style="strokeWidth=2;html=1;shape=mxgraph.flowchart.decision;whiteSpace=wrap;rounded=1;fontSize=16;fontStyle=1" vertex="1" parent="KfOCIXJU434fRKiUwHN7-1">
          <mxGeometry x="437.4907433489828" y="576.0787878787879" width="198.44972613458532" height="147.9121212121212" as="geometry" />
        </mxCell>
        <mxCell id="KfOCIXJU434fRKiUwHN7-41" value="" style="endArrow=classic;startArrow=classic;html=1;rounded=1;entryX=0.75;entryY=1;entryDx=0;entryDy=0;exitX=1;exitY=0.5;exitDx=0;exitDy=0;fontSize=16;fontStyle=1" edge="1" parent="KfOCIXJU434fRKiUwHN7-1" target="KfOCIXJU434fRKiUwHN7-33">
          <mxGeometry width="50" height="50" relative="1" as="geometry">
            <mxPoint x="811.2112676056339" y="295.8242424242424" as="sourcePoint" />
            <mxPoint x="749.7558685446011" y="329.1878787878788" as="targetPoint" />
            <Array as="points">
              <mxPoint x="846.0359937402192" y="295.8242424242424" />
              <mxPoint x="846.0359937402192" y="358.1030303030303" />
              <mxPoint x="803.0172143974962" y="358.1030303030303" />
              <mxPoint x="780.4835680751174" y="358.1030303030303" />
            </Array>
          </mxGeometry>
        </mxCell>
        <mxCell id="KfOCIXJU434fRKiUwHN7-42" value="Check&amp;nbsp;&lt;br style=&quot;font-size: 16px;&quot;&gt;order" style="edgeLabel;html=1;align=center;verticalAlign=middle;resizable=0;points=[];rounded=1;fontSize=16;fontStyle=1" vertex="1" connectable="0" parent="KfOCIXJU434fRKiUwHN7-41">
          <mxGeometry x="-0.3065" y="1" relative="1" as="geometry">
            <mxPoint x="-1" as="offset" />
          </mxGeometry>
        </mxCell>
        <mxCell id="KfOCIXJU434fRKiUwHN7-43" value="generate a order" style="whiteSpace=wrap;html=1;strokeWidth=2;rounded=1;labelBackgroundColor=none;fontSize=16;fontStyle=1" vertex="1" parent="KfOCIXJU434fRKiUwHN7-1">
          <mxGeometry x="688.3004694835682" y="418.1575757575758" width="122.91079812206574" height="66.72727272727273" as="geometry" />
        </mxCell>
        <mxCell id="KfOCIXJU434fRKiUwHN7-44" value="" style="edgeStyle=orthogonalEdgeStyle;rounded=1;orthogonalLoop=1;jettySize=auto;html=1;fontSize=16;fontStyle=1" edge="1" parent="KfOCIXJU434fRKiUwHN7-1" source="KfOCIXJU434fRKiUwHN7-33" target="KfOCIXJU434fRKiUwHN7-43">
          <mxGeometry relative="1" as="geometry" />
        </mxCell>
        <mxCell id="KfOCIXJU434fRKiUwHN7-45" value="submit" style="edgeLabel;html=1;align=center;verticalAlign=middle;resizable=0;points=[];rounded=1;fontSize=16;fontStyle=1" vertex="1" connectable="0" parent="KfOCIXJU434fRKiUwHN7-44">
          <mxGeometry x="-0.2787" y="-2" relative="1" as="geometry">
            <mxPoint as="offset" />
          </mxGeometry>
        </mxCell>
        <mxCell id="KfOCIXJU434fRKiUwHN7-46" value="end" style="strokeWidth=2;html=1;shape=mxgraph.flowchart.terminator;whiteSpace=wrap;rounded=1;fontSize=16;fontStyle=1" vertex="1" parent="KfOCIXJU434fRKiUwHN7-1">
          <mxGeometry x="698.5430359937403" y="560.5090909090909" width="102.42566510172146" height="66.72727272727273" as="geometry" />
        </mxCell>
        <mxCell id="KfOCIXJU434fRKiUwHN7-47" value="" style="edgeStyle=orthogonalEdgeStyle;rounded=1;orthogonalLoop=1;jettySize=auto;html=1;fontSize=16;fontStyle=1" edge="1" parent="KfOCIXJU434fRKiUwHN7-1" source="KfOCIXJU434fRKiUwHN7-43" target="KfOCIXJU434fRKiUwHN7-46">
          <mxGeometry relative="1" as="geometry" />
        </mxCell>
        <mxCell id="KfOCIXJU434fRKiUwHN7-48" value="pay bill" style="edgeLabel;html=1;align=center;verticalAlign=middle;resizable=0;points=[];rounded=1;fontSize=16;fontStyle=1" vertex="1" connectable="0" parent="KfOCIXJU434fRKiUwHN7-47">
          <mxGeometry x="-0.2711" y="-2" relative="1" as="geometry">
            <mxPoint as="offset" />
          </mxGeometry>
        </mxCell>
        <mxCell id="KfOCIXJU434fRKiUwHN7-49" value="" style="verticalLabelPosition=bottom;verticalAlign=top;html=1;shape=mxgraph.flowchart.parallel_mode;pointerEvents=1;rounded=1;fontSize=16;fontStyle=1" vertex="1" parent="KfOCIXJU434fRKiUwHN7-1">
          <mxGeometry x="864.9847417840377" y="451.5212121212121" width="286.79186228482007" height="44.484848484848484" as="geometry" />
        </mxCell>
        <mxCell id="KfOCIXJU434fRKiUwHN7-50" value="" style="edgeStyle=orthogonalEdgeStyle;rounded=1;orthogonalLoop=1;jettySize=auto;html=1;fontSize=16;fontStyle=1" edge="1" parent="KfOCIXJU434fRKiUwHN7-1" source="KfOCIXJU434fRKiUwHN7-35" target="KfOCIXJU434fRKiUwHN7-49">
          <mxGeometry relative="1" as="geometry" />
        </mxCell>
        <mxCell id="KfOCIXJU434fRKiUwHN7-51" value="check oder &lt;br style=&quot;font-size: 16px;&quot;&gt;by default" style="edgeLabel;html=1;align=center;verticalAlign=middle;resizable=0;points=[];rounded=1;fontSize=16;fontStyle=1" vertex="1" connectable="0" parent="KfOCIXJU434fRKiUwHN7-50">
          <mxGeometry x="0.2379" relative="1" as="geometry">
            <mxPoint y="10" as="offset" />
          </mxGeometry>
        </mxCell>
        <mxCell id="KfOCIXJU434fRKiUwHN7-52" style="edgeStyle=orthogonalEdgeStyle;rounded=1;orthogonalLoop=1;jettySize=auto;html=1;entryX=0.123;entryY=-0.076;entryDx=0;entryDy=0;entryPerimeter=0;fontSize=16;fontStyle=1" edge="1" parent="KfOCIXJU434fRKiUwHN7-1" source="KfOCIXJU434fRKiUwHN7-35" target="KfOCIXJU434fRKiUwHN7-49">
          <mxGeometry relative="1" as="geometry" />
        </mxCell>
        <mxCell id="KfOCIXJU434fRKiUwHN7-53" value="search by dates&amp;nbsp;&lt;br style=&quot;font-size: 16px;&quot;&gt;of sale" style="edgeLabel;html=1;align=center;verticalAlign=middle;resizable=0;points=[];rounded=1;fontSize=16;fontStyle=1" vertex="1" connectable="0" parent="KfOCIXJU434fRKiUwHN7-52">
          <mxGeometry x="0.6535" y="-2" relative="1" as="geometry">
            <mxPoint y="7" as="offset" />
          </mxGeometry>
        </mxCell>
        <mxCell id="KfOCIXJU434fRKiUwHN7-54" style="edgeStyle=orthogonalEdgeStyle;rounded=1;orthogonalLoop=1;jettySize=auto;html=1;entryX=0.936;entryY=-0.076;entryDx=0;entryDy=0;entryPerimeter=0;fontSize=16;fontStyle=1" edge="1" parent="KfOCIXJU434fRKiUwHN7-1" source="KfOCIXJU434fRKiUwHN7-35" target="KfOCIXJU434fRKiUwHN7-49">
          <mxGeometry relative="1" as="geometry" />
        </mxCell>
        <mxCell id="KfOCIXJU434fRKiUwHN7-55" value="Search by &lt;br style=&quot;font-size: 16px;&quot;&gt;name of the pizza" style="edgeLabel;html=1;align=center;verticalAlign=middle;resizable=0;points=[];rounded=1;fontSize=16;fontStyle=1" vertex="1" connectable="0" parent="KfOCIXJU434fRKiUwHN7-54">
          <mxGeometry x="0.7168" y="-1" relative="1" as="geometry">
            <mxPoint x="4" as="offset" />
          </mxGeometry>
        </mxCell>
        <mxCell id="KfOCIXJU434fRKiUwHN7-56" value="List of order query result information" style="whiteSpace=wrap;html=1;verticalAlign=top;rounded=1;fontSize=16;fontStyle=1" vertex="1" parent="KfOCIXJU434fRKiUwHN7-1">
          <mxGeometry x="928.2325899843506" y="564.9575757575758" width="160.2961658841941" height="77.84848484848486" as="geometry" />
        </mxCell>
        <mxCell id="KfOCIXJU434fRKiUwHN7-57" value="" style="edgeStyle=orthogonalEdgeStyle;rounded=1;orthogonalLoop=1;jettySize=auto;html=1;fontSize=16;fontStyle=1" edge="1" parent="KfOCIXJU434fRKiUwHN7-1" source="KfOCIXJU434fRKiUwHN7-49" target="KfOCIXJU434fRKiUwHN7-56">
          <mxGeometry relative="1" as="geometry" />
        </mxCell>
        <mxCell id="KfOCIXJU434fRKiUwHN7-58" value="Log out" style="whiteSpace=wrap;html=1;strokeWidth=2;rounded=1;labelBackgroundColor=none;fontSize=16;fontStyle=1" vertex="1" parent="KfOCIXJU434fRKiUwHN7-1">
          <mxGeometry x="1186.0892018779343" y="262.4606060606061" width="122.91079812206574" height="66.72727272727273" as="geometry" />
        </mxCell>
        <mxCell id="KfOCIXJU434fRKiUwHN7-59" style="edgeStyle=orthogonalEdgeStyle;rounded=1;orthogonalLoop=1;jettySize=auto;html=1;entryX=0.5;entryY=0;entryDx=0;entryDy=0;fontSize=16;fontStyle=1" edge="1" parent="KfOCIXJU434fRKiUwHN7-1" source="KfOCIXJU434fRKiUwHN7-6" target="KfOCIXJU434fRKiUwHN7-58">
          <mxGeometry relative="1" as="geometry" />
        </mxCell>
        <mxCell id="KfOCIXJU434fRKiUwHN7-60" value="choose from the navigator bar" style="edgeLabel;html=1;align=center;verticalAlign=middle;resizable=0;points=[];rounded=1;fontSize=16;fontStyle=1" vertex="1" connectable="0" parent="KfOCIXJU434fRKiUwHN7-59">
          <mxGeometry x="-0.0376" y="2" relative="1" as="geometry">
            <mxPoint as="offset" />
          </mxGeometry>
        </mxCell>
        <mxCell id="KfOCIXJU434fRKiUwHN7-61" value="end" style="strokeWidth=2;html=1;shape=mxgraph.flowchart.terminator;whiteSpace=wrap;rounded=1;fontSize=16;fontStyle=1" vertex="1" parent="KfOCIXJU434fRKiUwHN7-1">
          <mxGeometry x="1197.3560250391238" y="418.1575757575758" width="102.42566510172146" height="66.72727272727273" as="geometry" />
        </mxCell>
        <mxCell id="KfOCIXJU434fRKiUwHN7-62" style="edgeStyle=orthogonalEdgeStyle;rounded=1;orthogonalLoop=1;jettySize=auto;html=1;entryX=0.5;entryY=0;entryDx=0;entryDy=0;entryPerimeter=0;fontSize=16;fontStyle=1" edge="1" parent="KfOCIXJU434fRKiUwHN7-1" source="KfOCIXJU434fRKiUwHN7-58" target="KfOCIXJU434fRKiUwHN7-61">
          <mxGeometry relative="1" as="geometry" />
        </mxCell>
      </root>
    </mxGraphModel>
  </diagram>
  <diagram id="fhTgweMICGLsKJUQVvXm" name="第 5 页">
    <mxGraphModel dx="1450" dy="987" grid="0" gridSize="14" guides="1" tooltips="1" connect="1" arrows="1" fold="1" page="0" pageScale="1" pageWidth="827" pageHeight="1169" math="0" shadow="0">
      <root>
        <mxCell id="0" />
        <mxCell id="1" parent="0" />
        <mxCell id="5AYPgFHwjYAAt4AUvIzH-1" value="Actor" style="shape=umlActor;verticalLabelPosition=bottom;verticalAlign=top;html=1;outlineConnect=0;" vertex="1" parent="1">
          <mxGeometry x="-80" y="-19" width="30" height="60" as="geometry" />
        </mxCell>
        <mxCell id="5AYPgFHwjYAAt4AUvIzH-2" value="Actor" style="shape=umlActor;verticalLabelPosition=bottom;verticalAlign=top;html=1;outlineConnect=0;" vertex="1" parent="1">
          <mxGeometry x="-78" y="136" width="30" height="60" as="geometry" />
        </mxCell>
        <mxCell id="5AYPgFHwjYAAt4AUvIzH-3" value="Actor" style="shape=umlActor;verticalLabelPosition=bottom;verticalAlign=top;html=1;outlineConnect=0;" vertex="1" parent="1">
          <mxGeometry x="-80" y="390" width="30" height="60" as="geometry" />
        </mxCell>
        <mxCell id="5AYPgFHwjYAAt4AUvIzH-4" value="Actor" style="shape=umlActor;verticalLabelPosition=bottom;verticalAlign=top;html=1;outlineConnect=0;" vertex="1" parent="1">
          <mxGeometry x="466" y="-3" width="30" height="60" as="geometry" />
        </mxCell>
        <mxCell id="5AYPgFHwjYAAt4AUvIzH-5" value="Actor" style="shape=umlActor;verticalLabelPosition=bottom;verticalAlign=top;html=1;outlineConnect=0;" vertex="1" parent="1">
          <mxGeometry x="474" y="141" width="30" height="60" as="geometry" />
        </mxCell>
        <mxCell id="5AYPgFHwjYAAt4AUvIzH-6" value="" style="whiteSpace=wrap;html=1;aspect=fixed;" vertex="1" parent="1">
          <mxGeometry x="-23" y="-16" width="489" height="489" as="geometry" />
        </mxCell>
        <mxCell id="5AYPgFHwjYAAt4AUvIzH-7" value="Select pizza" style="ellipse;whiteSpace=wrap;html=1;" vertex="1" parent="1">
          <mxGeometry x="64" y="39" width="120" height="80" as="geometry" />
        </mxCell>
        <mxCell id="5AYPgFHwjYAAt4AUvIzH-8" value="add]" style="ellipse;whiteSpace=wrap;html=1;" vertex="1" parent="1">
          <mxGeometry x="82" y="185" width="120" height="80" as="geometry" />
        </mxCell>
      </root>
    </mxGraphModel>
  </diagram>
</mxfile>
